<svg id="_008-create" data-name="008-create" xmlns="http://www.w3.org/2000/svg" width="131.848" height="131.848" viewBox="0 0 131.848 131.848">
  <g id="Group_3343" data-name="Group 3343" transform="translate(0 0)">
    <ellipse id="Ellipse_712" data-name="Ellipse 712" cx="65.924" cy="65.924" rx="65.924" ry="65.924" fill="#106d74"/>
    <ellipse id="Ellipse_713" data-name="Ellipse 713" cx="57.034" cy="57.034" rx="57.034" ry="57.034" transform="translate(8.89 8.89)" fill="#147f87"/>
  </g>
  <g id="Group_3370" data-name="Group 3370" transform="translate(27.693 38.329)">
    <path id="Path_4620" data-name="Path 4620" d="M131.906,130.126H62.07a3.313,3.313,0,0,1-3.313-3.313V83.333A3.313,3.313,0,0,1,62.07,80.02h69.836a3.313,3.313,0,0,1,3.313,3.313v43.48A3.313,3.313,0,0,1,131.906,130.126Z" transform="translate(-58.757 -78.916)" fill="#136da0"/>
    <path id="Path_4621" data-name="Path 4621" d="M131.906,128.126H62.07a3.313,3.313,0,0,1-3.313-3.313V81.333A3.313,3.313,0,0,1,62.07,78.02h69.836a3.313,3.313,0,0,1,3.313,3.313v43.48A3.313,3.313,0,0,1,131.906,128.126Z" transform="translate(-58.757 -78.02)" fill="#1caee4"/>
    <path id="Path_4622" data-name="Path 4622" d="M132.585,127.238H65.042a2.209,2.209,0,0,1-2.209-2.209V84.771a2.209,2.209,0,0,1,2.209-2.209h67.543a2.209,2.209,0,0,1,2.208,2.209V125.03A2.207,2.207,0,0,1,132.585,127.238Z" transform="translate(-60.583 -80.054)" fill="#f7cb15"/>
    <path id="Path_4623" data-name="Path 4623" d="M132.585,82.562H65.042a2.209,2.209,0,0,0-2.209,2.209v1.656a2.209,2.209,0,0,1,2.209-2.209h67.543a2.209,2.209,0,0,1,2.208,2.209V84.771A2.208,2.208,0,0,0,132.585,82.562Z" transform="translate(-60.583 -80.054)" fill="#e7ad27"/>
    <path id="Path_4624" data-name="Path 4624" d="M128.226,194.046H101.909a2.784,2.784,0,0,1-2.784-2.784h0a2.784,2.784,0,0,1,2.784-2.784h26.317a2.785,2.785,0,0,1,2.784,2.784h0A2.784,2.784,0,0,1,128.226,194.046Z" transform="translate(-76.837 -127.491)" fill="#fff"/>
    <path id="Path_4625" data-name="Path 4625" d="M128.226,193.54H101.909a2.778,2.778,0,0,1-2.6-1.8,2.766,2.766,0,0,0,2.6,3.768h26.317a2.766,2.766,0,0,0,2.6-3.768A2.778,2.778,0,0,1,128.226,193.54Z" transform="translate(-76.837 -128.952)" fill="#d1d3d4"/>
    <rect id="Rectangle_1614" data-name="Rectangle 1614" width="17.668" height="9.777" transform="translate(29.397 51.21)" fill="#d1d3d4"/>
    <rect id="Rectangle_1615" data-name="Rectangle 1615" width="17.668" height="2.83" transform="translate(29.397 51.21)" fill="#bcbec0"/>
    <g id="Group_3344" data-name="Group 3344" transform="translate(8.482 6.277)">
      <path id="Path_4626" data-name="Path 4626" d="M89.981,106.355H75.224a1.1,1.1,0,0,1-1.1-1.1V90.493a1.1,1.1,0,0,1,1.1-1.1H89.981a1.1,1.1,0,0,1,1.1,1.1v14.757A1.1,1.1,0,0,1,89.981,106.355Z" transform="translate(-74.12 -89.389)" fill="#fede3a"/>
      <path id="Path_4627" data-name="Path 4627" d="M128.5,106.355H113.74a1.1,1.1,0,0,1-1.1-1.1V90.493a1.1,1.1,0,0,1,1.1-1.1H128.5a1.1,1.1,0,0,1,1.1,1.1v14.757A1.1,1.1,0,0,1,128.5,106.355Z" transform="translate(-91.37 -89.389)" fill="#fede3a"/>
      <path id="Path_4628" data-name="Path 4628" d="M167.013,106.355H152.256a1.1,1.1,0,0,1-1.1-1.1V90.493a1.1,1.1,0,0,1,1.1-1.1h14.757a1.1,1.1,0,0,1,1.1,1.1v14.757A1.1,1.1,0,0,1,167.013,106.355Z" transform="translate(-108.621 -89.389)" fill="#fede3a"/>
      <path id="Path_4629" data-name="Path 4629" d="M89.981,143.738H75.224a1.1,1.1,0,0,1-1.1-1.1V127.876a1.1,1.1,0,0,1,1.1-1.1H89.981a1.1,1.1,0,0,1,1.1,1.1v14.757A1.1,1.1,0,0,1,89.981,143.738Z" transform="translate(-74.12 -106.132)" fill="#fede3a"/>
      <path id="Path_4630" data-name="Path 4630" d="M128.5,143.738H113.74a1.1,1.1,0,0,1-1.1-1.1V127.876a1.1,1.1,0,0,1,1.1-1.1H128.5a1.1,1.1,0,0,1,1.1,1.1v14.757A1.1,1.1,0,0,1,128.5,143.738Z" transform="translate(-91.37 -106.132)" fill="#fede3a"/>
      <path id="Path_4631" data-name="Path 4631" d="M167.013,143.738H152.256a1.1,1.1,0,0,1-1.1-1.1V127.876a1.1,1.1,0,0,1,1.1-1.1h14.757a1.1,1.1,0,0,1,1.1,1.1v14.757A1.1,1.1,0,0,1,167.013,143.738Z" transform="translate(-108.621 -106.132)" fill="#fede3a"/>
    </g>
    <g id="Group_3346" data-name="Group 3346" transform="translate(11.277 9.858)">
      <path id="Path_4632" data-name="Path 4632" d="M88.6,101.191a3.852,3.852,0,0,0-7.461,0,2.435,2.435,0,0,0,.478,4.823h6.507a2.435,2.435,0,0,0,.477-4.823Z" transform="translate(-79.181 -96.961)" fill="#f7cb15"/>
      <path id="Path_4633" data-name="Path 4633" d="M88.6,98.767a3.852,3.852,0,0,0-7.461,0,2.435,2.435,0,0,0,.478,4.823h6.507a2.435,2.435,0,0,0,.477-4.823Z" transform="translate(-79.181 -95.875)" fill="#fff"/>
      <g id="Group_3345" data-name="Group 3345" transform="translate(0 4.678)">
        <path id="Path_4634" data-name="Path 4634" d="M88.123,106.158H81.616a2.433,2.433,0,0,1-2.351-1.81,2.4,2.4,0,0,0-.084.6,2.436,2.436,0,0,0,2.435,2.435h6.507a2.407,2.407,0,0,0,2.352-3.037A2.436,2.436,0,0,1,88.123,106.158Z" transform="translate(-79.181 -104.348)" fill="#e6e7e8"/>
      </g>
    </g>
    <g id="Group_3353" data-name="Group 3353" transform="translate(53.477 31.358)">
      <path id="Path_4635" data-name="Path 4635" d="M168.126,137.8l0-.007a1.249,1.249,0,0,0-.075-.233h0a1.245,1.245,0,0,0-1.141-.749H156.859a1.245,1.245,0,0,0-1.141.749h0a1.253,1.253,0,0,0-.074.23s0,.006,0,.009a1.238,1.238,0,0,0-.027.249s0,0,0,.008a1.246,1.246,0,0,0,1.246,1.246h.009v4.255a1.243,1.243,0,0,0,1.211,1.242v0h7.61v0a1.243,1.243,0,0,0,1.211-1.242V139.3h.009a1.245,1.245,0,0,0,1.245-1.245A1.271,1.271,0,0,0,168.126,137.8Z" transform="translate(-155.614 -135.71)" fill="#f7cb15"/>
      <g id="Group_3352" data-name="Group 3352" transform="translate(0.001)">
        <g id="Group_3347" data-name="Group 3347" transform="translate(1.254 2.49)">
          <path id="Path_4636" data-name="Path 4636" d="M167.917,139.325H157.886v4.255a1.245,1.245,0,0,0,1.245,1.245h7.54a1.245,1.245,0,0,0,1.245-1.245v-4.255Z" transform="translate(-157.886 -139.325)" fill="#009add"/>
        </g>
        <g id="Group_3348" data-name="Group 3348" transform="translate(2.465 2.49)">
          <rect id="Rectangle_1616" data-name="Rectangle 1616" width="7.609" height="5.5" fill="#53bcc0"/>
        </g>
        <g id="Group_3349" data-name="Group 3349" transform="translate(1.254 2.49)">
          <rect id="Rectangle_1617" data-name="Rectangle 1617" width="10.031" height="1.222" fill="#136da0"/>
        </g>
        <g id="Group_3350" data-name="Group 3350" transform="translate(0.001)">
          <path id="Path_4637" data-name="Path 4637" d="M166.909,134.815H156.861a1.245,1.245,0,0,0-1.245,1.245h0a1.245,1.245,0,0,0,1.245,1.245h10.048a1.245,1.245,0,0,0,1.245-1.245h0A1.245,1.245,0,0,0,166.909,134.815Z" transform="translate(-155.616 -134.815)" fill="#1caee4"/>
        </g>
        <g id="Group_3351" data-name="Group 3351" transform="translate(2.257)">
          <path id="Path_4638" data-name="Path 4638" d="M166.732,134.815H160.7a1,1,0,0,0-1,1v.5a1,1,0,0,0,1,1h6.033a1,1,0,0,0,1-1v-.5A1,1,0,0,0,166.732,134.815Z" transform="translate(-159.703 -134.815)" fill="#53bcc0"/>
        </g>
        <path id="Path_4639" data-name="Path 4639" d="M166.909,136.92H156.861a1.245,1.245,0,0,1-1.141-.749,1.243,1.243,0,0,0,1.141,1.741h10.048a1.244,1.244,0,0,0,1.141-1.741A1.244,1.244,0,0,1,166.909,136.92Z" transform="translate(-155.615 -135.422)" fill="#009add"/>
      </g>
    </g>
    <g id="Group_3359" data-name="Group 3359" transform="translate(55.816 7.913)">
      <path id="Path_4640" data-name="Path 4640" d="M167.619,103.512l-1.141-1.706h0l-.489-.732h.363a.552.552,0,0,0,.459-.86l-1.31-1.957L165.326,98h.157a.552.552,0,0,0,.459-.86l-1.7-2.543a.552.552,0,0,0-.918,0l-1.7,2.543a.552.552,0,0,0,.459.86h.157l-.473.707-1.011,1.511a.552.552,0,0,0,.459.86h.363l-.479.715-.011.017h0l-1.141,1.706a.552.552,0,0,0,.459.86h2.608v2.477a.77.77,0,1,0,1.54,0v-2.477h2.607A.552.552,0,0,0,167.619,103.512Z" transform="translate(-159.851 -93.246)" fill="#f7cb15"/>
      <g id="Group_3358" data-name="Group 3358">
        <g id="Group_3357" data-name="Group 3357">
          <path id="Path_4641" data-name="Path 4641" d="M166.345,113.749h0a.77.77,0,0,1-.77-.77V110.5h1.54v2.477A.77.77,0,0,1,166.345,113.749Z" transform="translate(-162.414 -100.48)" fill="#fff"/>
          <rect id="Rectangle_1618" data-name="Rectangle 1618" width="1.54" height="0.809" transform="translate(3.161 10.022)" fill="#e6e7e8"/>
          <g id="Group_3354" data-name="Group 3354" transform="translate(0 3.869)">
            <path id="Path_4642" data-name="Path 4642" d="M167.159,105.511H160.4a.552.552,0,0,1-.459-.86l3.377-5.048a.552.552,0,0,1,.918,0l3.377,5.048A.552.552,0,0,1,167.159,105.511Z" transform="translate(-159.85 -99.359)" fill="#53bcc0"/>
          </g>
          <path id="Path_4643" data-name="Path 4643" d="M162.088,105.262h5.391l-.489-.731h-4.412Z" transform="translate(-160.852 -97.806)" fill="#136da0"/>
          <g id="Group_3355" data-name="Group 3355" transform="translate(0.809 1.781)">
            <path id="Path_4644" data-name="Path 4644" d="M167.006,100.521h-5.138a.552.552,0,0,1-.459-.86l2.568-3.839a.552.552,0,0,1,.918,0l2.568,3.839A.552.552,0,0,1,167.006,100.521Z" transform="translate(-161.315 -95.577)" fill="#53bcc0"/>
          </g>
          <path id="Path_4645" data-name="Path 4645" d="M163.288,99.689h4.066l-.489-.732h-3.088Z" transform="translate(-161.39 -95.31)" fill="#009add"/>
          <g id="Group_3356" data-name="Group 3356" transform="translate(1.676)">
            <path id="Path_4646" data-name="Path 4646" d="M166.843,96h-3.4a.552.552,0,0,1-.459-.86l1.7-2.543a.552.552,0,0,1,.918,0l1.7,2.543A.552.552,0,0,1,166.843,96Z" transform="translate(-162.886 -92.351)" fill="#27c1e6"/>
          </g>
        </g>
      </g>
    </g>
    <g id="Group_3363" data-name="Group 3363" transform="translate(34.019 28.86)">
      <path id="Path_4647" data-name="Path 4647" d="M128.832,140.463c0-.128-.007-.253-.018-.378a.067.067,0,0,1,0-.01.024.024,0,0,1,0,0,4.232,4.232,0,0,0-2.9-3.637h.01v-1.676h.119a.451.451,0,0,0,.451-.451.445.445,0,0,0-.031-.156.384.384,0,0,0-.016-.038.343.343,0,0,0-.014-.033l0,.006a.446.446,0,0,0-.386-.231h-.156l.036-.348h0l.11-1.053a.325.325,0,0,0-.324-.359H123.5a.325.325,0,0,0-.324.359l.126,1.207.02.194h-.156a.445.445,0,0,0-.386.231l0-.006c-.006.01-.008.022-.014.033s-.011.025-.016.038a.439.439,0,0,0-.031.155.451.451,0,0,0,.451.451h.119v1.676h.01a4.232,4.232,0,0,0-2.9,3.637s0,0,0,0,0,.007,0,.011c-.011.124-.018.25-.018.378a4.226,4.226,0,0,0,3.938,4.214l0,0c.1.007.2.012.3.012a4.217,4.217,0,0,0,.588-.046l.13-.02a4.155,4.155,0,0,0,.558-.131h.006A4.227,4.227,0,0,0,128.832,140.463Z" transform="translate(-120.372 -131.102)" fill="#f7cb15"/>
      <g id="Group_3362" data-name="Group 3362" transform="translate(0.001)">
        <path id="Path_4648" data-name="Path 4648" d="M125.909,136.789h.01v-1.676h-2.63v1.676h.01a4.23,4.23,0,1,0,2.61,0Z" transform="translate(-120.374 -132.45)" fill="#e6e7e8"/>
        <path id="Path_4649" data-name="Path 4649" d="M127.8,132.614H125.95a.326.326,0,0,1-.324-.292l-.176-1.674a.325.325,0,0,1,.324-.359h2.2a.325.325,0,0,1,.324.359l-.176,1.674A.325.325,0,0,1,127.8,132.614Z" transform="translate(-122.647 -130.29)" fill="#1cb0b5"/>
        <path id="Path_4650" data-name="Path 4650" d="M127.909,132.614h-1c-.09,0-.166-.126-.176-.292l-.095-1.674c-.011-.192.071-.359.175-.359H128c.1,0,.186.167.175.359l-.095,1.674C128.075,132.489,128,132.614,127.909,132.614Z" transform="translate(-123.177 -130.29)" fill="#53bcc0"/>
        <path id="Path_4651" data-name="Path 4651" d="M127.939,133.479H125.07a.451.451,0,0,0-.451.451h0a.451.451,0,0,0,.451.451h2.869a.451.451,0,0,0,.451-.451h0A.451.451,0,0,0,127.939,133.479Z" transform="translate(-122.275 -131.718)" fill="#fff"/>
        <path id="Path_4652" data-name="Path 4652" d="M127.939,134.113H125.07a.451.451,0,0,1-.39-.226.451.451,0,0,0,.39.677h2.869a.451.451,0,0,0,.39-.677A.451.451,0,0,1,127.939,134.113Z" transform="translate(-122.275 -131.901)" fill="#e6e7e8"/>
        <rect id="Rectangle_1619" data-name="Rectangle 1619" width="2.63" height="0.674" transform="translate(2.914 2.663)" fill="#d1d3d4"/>
        <path id="Path_4653" data-name="Path 4653" d="M128.282,132.848h-2.63l.036.348h2.557Z" transform="translate(-122.738 -131.436)" fill="#136da0"/>
        <path id="Path_4654" data-name="Path 4654" d="M122.08,142.769a3.449,3.449,0,1,0,6.313,0,.31.31,0,0,0-.284-.184h-5.747A.308.308,0,0,0,122.08,142.769Z" transform="translate(-121.007 -135.797)" fill="#d14547"/>
        <path id="Path_4655" data-name="Path 4655" d="M125.984,142.115a.58.58,0,1,1-.58-.58A.58.58,0,0,1,125.984,142.115Z" transform="translate(-122.367 -135.326)" fill="#e55658"/>
        <path id="Path_4656" data-name="Path 4656" d="M126.239,141.858a.237.237,0,1,1-.237-.237A.237.237,0,0,1,126.239,141.858Z" transform="translate(-122.788 -135.365)" fill="#f06ea9"/>
        <path id="Path_4657" data-name="Path 4657" d="M123.56,142.769a4.458,4.458,0,0,0-.214,1.626c.088,1.75,1.174,3.149,2.491,3.211,1.474.07,2.686-1.5,2.686-3.447a4.424,4.424,0,0,0-.22-1.389.24.24,0,0,0-.213-.184h-4.318A.239.239,0,0,0,123.56,142.769Z" transform="translate(-121.702 -135.797)" fill="#e55658"/>
        <path id="Path_4658" data-name="Path 4658" d="M125.111,147.36a3.465,3.465,0,0,1-3.28-2.9,3.448,3.448,0,1,0,6.855.537,3.43,3.43,0,0,0-.043-.541A3.45,3.45,0,0,1,125.111,147.36Z" transform="translate(-121.007 -136.634)" fill="#cf3134"/>
        <path id="Path_4659" data-name="Path 4659" d="M128.478,148.026a3.438,3.438,0,0,1-4.715-.007,2.72,2.72,0,0,0,2.263,2.02c.031,0,.062,0,.093,0h.046A2.685,2.685,0,0,0,128.478,148.026Z" transform="translate(-121.892 -138.23)" fill="#d14547"/>
        <path id="Path_4660" data-name="Path 4660" d="M122.082,143.116a.308.308,0,0,1,.283-.183h5.747a.31.31,0,0,1,.284.184,3.433,3.433,0,0,1,.288,1.217c0-.059,0-.117,0-.176a3.437,3.437,0,0,0-.292-1.389.31.31,0,0,0-.284-.184h-5.747a.309.309,0,0,0-.283.182,3.44,3.44,0,0,0-.288,1.552A3.415,3.415,0,0,1,122.082,143.116Z" transform="translate(-121.008 -135.797)" fill="#e55658"/>
        <g id="Group_3360" data-name="Group 3360" transform="translate(0 3.566)">
          <path id="Path_4661" data-name="Path 4661" d="M130.4,136.748l.01,0v0Z" transform="translate(-124.863 -136.748)" fill="#d1d3d4"/>
          <path id="Path_4662" data-name="Path 4662" d="M125.662,136.748h-.01v0Z" transform="translate(-122.738 -136.748)" fill="#d1d3d4"/>
          <path id="Path_4663" data-name="Path 4663" d="M124.6,148.576a4.229,4.229,0,0,1-4.211-3.844c-.012.128-.018.257-.018.389a4.229,4.229,0,0,0,8.459,0c0-.131-.007-.261-.018-.389A4.229,4.229,0,0,1,124.6,148.576Z" transform="translate(-120.374 -140.324)" fill="#d1d3d4"/>
        </g>
        <g id="Group_3361" data-name="Group 3361" transform="translate(3.933 2.663)">
          <path id="Path_4664" data-name="Path 4664" d="M127.688,136.908a3.92,3.92,0,0,1,1.386,2.331h1.294a3.835,3.835,0,0,0-1.451-2.373.16.16,0,0,1-.077-.135v-1.617h-1.288l0,1.532A.318.318,0,0,0,127.688,136.908Z" transform="translate(-127.519 -135.114)" fill="#fff"/>
          <path id="Path_4665" data-name="Path 4665" d="M128.359,150.922a2.544,2.544,0,0,1-.862.816c.1.007.2.012.3.012a4.228,4.228,0,0,0,1.28-.2,3.512,3.512,0,0,0,1.02-1.462A3.436,3.436,0,0,1,128.359,150.922Z" transform="translate(-127.497 -141.821)" fill="#fff"/>
        </g>
        <path id="Path_4666" data-name="Path 4666" d="M130.793,146.728a6.631,6.631,0,0,0,.449-2.464,7.048,7.048,0,0,0-.2-1.678h-1.294a7.076,7.076,0,0,1,.2,1.678,5.939,5.939,0,0,1-.89,3.3A3.432,3.432,0,0,0,130.793,146.728Z" transform="translate(-124.263 -135.797)" fill="#ee6466"/>
        <path id="Path_4667" data-name="Path 4667" d="M128.141,140.322a.409.409,0,1,1-.409-.41A.409.409,0,0,1,128.141,140.322Z" transform="translate(-123.486 -134.599)" fill="#e55658"/>
        <path id="Path_4668" data-name="Path 4668" d="M128.311,140.206a.225.225,0,1,1-.225-.225A.226.226,0,0,1,128.311,140.206Z" transform="translate(-123.727 -134.63)" fill="#f06ea9"/>
      </g>
    </g>
    <g id="Group_3365" data-name="Group 3365" transform="translate(12.916 29.273)">
      <path id="Path_4669" data-name="Path 4669" d="M89.491,142.458h-.656l-.235-.9h0l-1.179-4.531h0l-.219-.84a1.73,1.73,0,0,0,.733-1.412,1.49,1.49,0,0,0-.027-.269,1.728,1.728,0,0,0-3.417,0,1.49,1.49,0,0,0-.027.269,1.729,1.729,0,0,0,.733,1.412l-1.632,6.272H82.91a.758.758,0,1,0,0,1.517h6.582a.759.759,0,0,0,0-1.517Z" transform="translate(-82.15 -131.934)" fill="#f7cb15"/>
      <g id="Group_3364" data-name="Group 3364">
        <path id="Path_4670" data-name="Path 4670" d="M89.491,148.1H82.908a.758.758,0,0,0-.758.758h0a.758.758,0,0,0,.758.758h6.582a.758.758,0,0,0,.758-.758h0A.758.758,0,0,0,89.491,148.1Z" transform="translate(-82.15 -138.679)" fill="#e55658"/>
        <path id="Path_4671" data-name="Path 4671" d="M89.323,149.267H83.075a.958.958,0,0,1-.821-.416.643.643,0,0,0-.1.343.854.854,0,0,0,.925.758h6.248a.854.854,0,0,0,.925-.758.643.643,0,0,0-.1-.343A.959.959,0,0,1,89.323,149.267Z" transform="translate(-82.15 -139.016)" fill="#d14547"/>
        <path id="Path_4672" data-name="Path 4672" d="M88.066,134.763H86.629l-1.916,7.363h5.268Z" transform="translate(-83.298 -132.706)" fill="#e55658"/>
        <path id="Path_4673" data-name="Path 4673" d="M88.74,134.763h-.753l-1,7.363h2.761Z" transform="translate(-84.315 -132.706)" fill="#cf3134"/>
        <path id="Path_4674" data-name="Path 4674" d="M87.272,136.693a1.733,1.733,0,0,0,2.441,0l-.5-1.931H87.774Z" transform="translate(-84.444 -132.706)" fill="#be2e30"/>
        <ellipse id="Ellipse_714" data-name="Ellipse 714" cx="1.735" cy="1.735" rx="1.735" ry="1.735" transform="translate(2.314)" fill="#e55658"/>
        <path id="Path_4675" data-name="Path 4675" d="M88.076,134.637a1.731,1.731,0,0,1-1.667-1.28,1.736,1.736,0,1,0,3.335,0A1.73,1.73,0,0,1,88.076,134.637Z" transform="translate(-84.027 -132.077)" fill="#d14547"/>
        <path id="Path_4676" data-name="Path 4676" d="M84.713,147.368h5.268l-.235-.9h-4.8Z" transform="translate(-83.298 -137.948)" fill="#cf3134"/>
      </g>
    </g>
    <g id="Group_3368" data-name="Group 3368" transform="translate(30.451 6.527)">
      <ellipse id="Ellipse_715" data-name="Ellipse 715" cx="5.946" cy="5.946" rx="5.946" ry="5.946" transform="translate(1.834 2.937)" fill="#f7cb15"/>
      <g id="Group_3367" data-name="Group 3367">
        <ellipse id="Ellipse_716" data-name="Ellipse 716" cx="5.946" cy="5.946" rx="5.946" ry="5.946" transform="matrix(0.923, -0.385, 0.385, 0.923, 0, 4.581)" fill="#d14547"/>
        <ellipse id="Ellipse_717" data-name="Ellipse 717" cx="5.034" cy="5.034" rx="5.034" ry="5.034" transform="translate(1.196 5.071) rotate(-22.631)" fill="#e55658"/>
        <path id="Path_7786" data-name="Path 7786" d="M4.24,0A4.24,4.24,0,1,1,0,4.24,4.24,4.24,0,0,1,4.24,0Z" transform="translate(3.54 3.538)" fill="#53bcc0"/>
        <path id="Path_4677" data-name="Path 4677" d="M126.115,101.432l2.49-.353a.093.093,0,0,0,0-.184l-2.49-.353a.093.093,0,0,1-.061-.148l.828-1.1a.093.093,0,0,0-.13-.13l-1.1.828a.093.093,0,0,1-.148-.061l-.353-2.49a.093.093,0,0,0-.184,0l-.353,2.49a.093.093,0,0,1-.148.061l-1.1-.828a.093.093,0,0,0-.13.13l.828,1.1a.093.093,0,0,1-.061.148l-2.49.353a.093.093,0,0,0,0,.184l2.49.353a.093.093,0,0,1,.061.148l-.828,1.1a.093.093,0,0,0,.13.13l1.1-.828a.093.093,0,0,1,.148.061l.353,2.49a.093.093,0,0,0,.184,0l.353-2.49a.093.093,0,0,1,.148-.061l1.1.828a.093.093,0,0,0,.13-.13l-.828-1.1A.093.093,0,0,1,126.115,101.432Z" transform="translate(-117.277 -93.209)" fill="#009add"/>
        <path id="Path_4678" data-name="Path 4678" d="M128.518,100.277a.059.059,0,0,0,0-.01.111.111,0,0,0,0-.018.033.033,0,0,0,0-.007.127.127,0,0,0,0-.02.015.015,0,0,0,0,0,.127.127,0,0,0,0-.025h0a.151.151,0,0,0-.223-.1l-2.715,1.543a.81.81,0,0,0-.6.483l-2.042,2.459a.151.151,0,0,0,.068.24l.007,0a.139.139,0,0,0,.034.006h0a.135.135,0,0,0,.036,0l.009,0a.145.145,0,0,0,.036-.015h0l2.782-1.581a.807.807,0,0,0,.577-.5l.745-.9,1.248-1.5.006-.008a.116.116,0,0,0,.012-.017A.042.042,0,0,0,128.518,100.277Z" transform="translate(-117.942 -94.422)" fill="#136da0"/>
        <g id="Group_3366" data-name="Group 3366" transform="translate(4.972 5.42)">
          <path id="Path_4679" data-name="Path 4679" d="M130.156,99.68l-3.105,1.764,1.011,1.215,2.285-2.752A.151.151,0,0,0,130.156,99.68Z" transform="translate(-124.767 -99.659)" fill="#e55658"/>
          <path id="Path_4680" data-name="Path 4680" d="M127.966,102.1l.505.607,2.285-2.752a.146.146,0,0,0,0-.192L128,102.067Z" transform="translate(-125.177 -99.705)" fill="#d14547"/>
          <path id="Path_4681" data-name="Path 4681" d="M123.141,105.815l3.105-1.764-1.011-1.215-2.285,2.752A.151.151,0,0,0,123.141,105.815Z" transform="translate(-122.915 -101.082)" fill="#fff"/>
          <path id="Path_4682" data-name="Path 4682" d="M125.782,103.9l-2.735,2.392a.143.143,0,0,0,.153,0l3.105-1.764Z" transform="translate(-122.974 -101.556)" fill="#e6e7e8"/>
          <path id="Path_4683" data-name="Path 4683" d="M127.9,103.9a.812.812,0,1,1,.1-1.144A.812.812,0,0,1,127.9,103.9Z" transform="translate(-124.549 -100.916)" fill="#f7cb15"/>
          <path id="Path_4684" data-name="Path 4684" d="M127.95,103.914a.494.494,0,1,1,.063-.7A.494.494,0,0,1,127.95,103.914Z" transform="translate(-124.808 -101.174)" fill="#fff335"/>
        </g>
      </g>
    </g>
  </g>
</svg>
