<svg id="_034-game-6" data-name="034-game-6" xmlns="http://www.w3.org/2000/svg" width="131.848" height="131.848" viewBox="0 0 131.848 131.848">
  <g id="Group_4614" data-name="Group 4614" transform="translate(0 0)">
    <ellipse id="Ellipse_855" data-name="Ellipse 855" cx="65.924" cy="65.924" rx="65.924" ry="65.924" fill="#106d74"/>
    <ellipse id="Ellipse_856" data-name="Ellipse 856" cx="57.034" cy="57.034" rx="57.034" ry="57.034" transform="translate(8.89 8.89)" fill="#147f87"/>
  </g>
  <g id="Group_4615" data-name="Group 4615" transform="translate(29.76 26.536)">
    <path id="Path_6064" data-name="Path 6064" d="M102.29,92.736h24.1a4.79,4.79,0,0,0,4.79-4.79V61.451a4.79,4.79,0,0,0-4.79-4.79h-24.1a4.79,4.79,0,0,0-4.79,4.79V87.946A4.79,4.79,0,0,0,102.29,92.736Z" transform="translate(-78.176 -56.661)" fill="#33312c"/>
    <path id="Path_6065" data-name="Path 6065" d="M91.39,129H67.29a4.79,4.79,0,0,0-4.79,4.79v26.495a4.79,4.79,0,0,0,4.79,4.79h24.1a4.79,4.79,0,0,0,4.79-4.79V133.79A4.789,4.789,0,0,0,91.39,129Z" transform="translate(-62.5 -89.06)" fill="#33312c"/>
    <path id="Path_6066" data-name="Path 6066" d="M161.389,129h-24.1a4.79,4.79,0,0,0-4.79,4.79v26.495a4.79,4.79,0,0,0,4.79,4.79h24.1a4.79,4.79,0,0,0,4.79-4.79V133.79A4.79,4.79,0,0,0,161.389,129Z" transform="translate(-93.851 -89.06)" fill="#33312c"/>
  </g>
  <g id="Group_4623" data-name="Group 4623" transform="translate(29.76 22.671)">
    <g id="Group_4617" data-name="Group 4617" transform="translate(19.324)">
      <g id="Group_4616" data-name="Group 4616">
        <path id="Path_6067" data-name="Path 6067" d="M126.389,87.68h-24.1a4.79,4.79,0,0,1-4.79-4.79V58.79a4.79,4.79,0,0,1,4.79-4.79h24.1a4.79,4.79,0,0,1,4.79,4.79v24.1A4.79,4.79,0,0,1,126.389,87.68Z" transform="translate(-97.499 -51.605)" fill="#136da0"/>
        <path id="Path_6068" data-name="Path 6068" d="M126.389,83.342h-24.1a4.79,4.79,0,0,1-4.79-4.79v-24.1a4.79,4.79,0,0,1,4.79-4.79h24.1a4.79,4.79,0,0,1,4.79,4.79v24.1A4.79,4.79,0,0,1,126.389,83.342Z" transform="translate(-97.499 -49.662)" fill="#53bcc0"/>
        <path id="Path_6069" data-name="Path 6069" d="M128.06,84.785H106.854a2.4,2.4,0,0,1-2.4-2.4V61.184a2.4,2.4,0,0,1,2.4-2.4H128.06a2.4,2.4,0,0,1,2.4,2.4V82.39A2.4,2.4,0,0,1,128.06,84.785Z" transform="translate(-100.616 -53.75)" fill="#e7ad27"/>
        <path id="Path_6070" data-name="Path 6070" d="M128.06,82.616H106.854a2.4,2.4,0,0,1-2.4-2.4V59.015a2.4,2.4,0,0,1,2.4-2.4H128.06a2.4,2.4,0,0,1,2.4,2.4V80.221A2.4,2.4,0,0,1,128.06,82.616Z" transform="translate(-100.616 -52.778)" fill="#fede3a"/>
      </g>
      <path id="Path_6071" data-name="Path 6071" d="M125.48,66.787h-.172a.7.7,0,0,0-.244.044l-4.252,1.577a.7.7,0,0,0-.458.659v.96a.7.7,0,0,0,.946.658l2.449-.909V80.015a.7.7,0,0,0,.7.7h1.029a.7.7,0,0,0,.7-.7V67.489A.7.7,0,0,0,125.48,66.787Z" transform="translate(-107.735 -57.332)" fill="#1caee4"/>
    </g>
    <g id="Group_4622" data-name="Group 4622" transform="translate(0 39.939)">
      <g id="Group_4619" data-name="Group 4619">
        <g id="Group_4618" data-name="Group 4618">
          <path id="Path_6072" data-name="Path 6072" d="M91.389,160.017H67.29a4.79,4.79,0,0,1-4.79-4.79v-24.1a4.79,4.79,0,0,1,4.79-4.79h24.1a4.79,4.79,0,0,1,4.79,4.79v24.1A4.791,4.791,0,0,1,91.389,160.017Z" transform="translate(-62.5 -123.942)" fill="#b22b2c"/>
          <path id="Path_6073" data-name="Path 6073" d="M91.389,155.679H67.29a4.79,4.79,0,0,1-4.79-4.79v-24.1A4.79,4.79,0,0,1,67.29,122h24.1a4.79,4.79,0,0,1,4.79,4.79v24.1A4.791,4.791,0,0,1,91.389,155.679Z" transform="translate(-62.5 -121.999)" fill="#e55658"/>
          <path id="Path_6074" data-name="Path 6074" d="M93.059,157.123H71.853a2.4,2.4,0,0,1-2.4-2.4V133.522a2.4,2.4,0,0,1,2.4-2.4H93.059a2.4,2.4,0,0,1,2.4,2.4v21.206A2.4,2.4,0,0,1,93.059,157.123Z" transform="translate(-65.616 -126.087)" fill="#b22b2c"/>
          <path id="Path_6075" data-name="Path 6075" d="M93.059,154.955H71.853a2.4,2.4,0,0,1-2.4-2.4V131.354a2.4,2.4,0,0,1,2.4-2.4H93.059a2.4,2.4,0,0,1,2.4,2.4V152.56A2.4,2.4,0,0,1,93.059,154.955Z" transform="translate(-65.616 -125.116)" fill="#fff"/>
        </g>
        <path id="Path_6076" data-name="Path 6076" d="M92.773,151.49h-5l2.448-2.768A14.781,14.781,0,0,0,92.234,146a4.867,4.867,0,0,0,.624-2.238,3.879,3.879,0,0,0-1.187-2.965,4.465,4.465,0,0,0-3.159-1.089,4.725,4.725,0,0,0-2.345.583,4.137,4.137,0,0,0-1.627,1.633,4.638,4.638,0,0,0-.563,2.258.7.7,0,0,0,.7.7H85.7a.7.7,0,0,0,.7-.7,2.195,2.195,0,0,1,.58-1.6,2.006,2.006,0,0,1,1.53-.591,1.912,1.912,0,0,1,1.417.485,1.839,1.839,0,0,1,.487,1.376,2.688,2.688,0,0,1-.333,1.23,10.621,10.621,0,0,1-1.377,1.881l-4.278,4.853a.7.7,0,0,0-.176.464v.789a.7.7,0,0,0,.7.7h7.819a.7.7,0,0,0,.7-.7v-.866A.7.7,0,0,0,92.773,151.49Z" transform="translate(-72.119 -129.928)" fill="#1caee4"/>
      </g>
      <g id="Group_4621" data-name="Group 4621" transform="translate(38.648)">
        <g id="Group_4620" data-name="Group 4620">
          <path id="Path_6077" data-name="Path 6077" d="M161.389,160.017h-24.1a4.79,4.79,0,0,1-4.79-4.79v-24.1a4.79,4.79,0,0,1,4.79-4.79h24.1a4.79,4.79,0,0,1,4.79,4.79v24.1A4.79,4.79,0,0,1,161.389,160.017Z" transform="translate(-132.499 -123.942)" fill="#e7ad27"/>
          <path id="Path_6078" data-name="Path 6078" d="M161.389,155.679h-24.1a4.79,4.79,0,0,1-4.79-4.79v-24.1a4.79,4.79,0,0,1,4.79-4.79h24.1a4.79,4.79,0,0,1,4.79,4.79v24.1A4.79,4.79,0,0,1,161.389,155.679Z" transform="translate(-132.499 -121.999)" fill="#fede3a"/>
          <path id="Path_6079" data-name="Path 6079" d="M163.06,157.123H141.854a2.4,2.4,0,0,1-2.4-2.4V133.522a2.4,2.4,0,0,1,2.4-2.4H163.06a2.4,2.4,0,0,1,2.4,2.4v21.206A2.4,2.4,0,0,1,163.06,157.123Z" transform="translate(-135.616 -126.087)" fill="#b22b2c"/>
          <path id="Path_6080" data-name="Path 6080" d="M163.06,154.955H141.854a2.4,2.4,0,0,1-2.4-2.4V131.354a2.4,2.4,0,0,1,2.4-2.4H163.06a2.4,2.4,0,0,1,2.4,2.4V152.56A2.4,2.4,0,0,1,163.06,154.955Z" transform="translate(-135.616 -125.116)" fill="#e55658"/>
        </g>
        <path id="Path_6081" data-name="Path 6081" d="M161.791,147.358a3.46,3.46,0,0,0-.809-.768,3.863,3.863,0,0,0,.609-.64,3.408,3.408,0,0,0,.711-2.081,4.016,4.016,0,0,0-1.2-3.048,4.422,4.422,0,0,0-3.158-1.118,4.9,4.9,0,0,0-2.237.513,4,4,0,0,0-1.639,1.5,4.053,4.053,0,0,0-.591,2.136.7.7,0,0,0,.7.7h1.029a.7.7,0,0,0,.7-.7,1.729,1.729,0,0,1,.541-1.348,2.1,2.1,0,0,1,1.492-.521,1.957,1.957,0,0,1,1.449.472,1.857,1.857,0,0,1,.471,1.381,1.576,1.576,0,0,1-.237.878,1.645,1.645,0,0,1-.716.6,2.9,2.9,0,0,1-1.242.245h-1.063a.7.7,0,0,0-.7.7v.875a.7.7,0,0,0,.7.7h1.029a3.008,3.008,0,0,1,1.915.5,1.658,1.658,0,0,1,.546,1.37,1.875,1.875,0,0,1-.515,1.459,2.26,2.26,0,0,1-1.6.5,2.368,2.368,0,0,1-1.664-.569,1.783,1.783,0,0,1-.6-1.421.7.7,0,0,0-.7-.7h-1.029a.7.7,0,0,0-.7.7,4,4,0,0,0,2.35,3.746,5.384,5.384,0,0,0,2.348.515,4.626,4.626,0,0,0,3.275-1.166,4.056,4.056,0,0,0,1.269-3.094A3.735,3.735,0,0,0,161.791,147.358Z" transform="translate(-141.811 -129.928)" fill="#fff"/>
      </g>
    </g>
  </g>
</svg>
