<svg xmlns="http://www.w3.org/2000/svg" width="30.583" height="26.413" viewBox="0 0 30.583 26.413">
  <path id="Icon_awesome-camera" data-name="Icon awesome-camera" d="M30.583,8.853v16.98a2.849,2.849,0,0,1-2.867,2.83H2.867A2.849,2.849,0,0,1,0,25.833V8.853a2.849,2.849,0,0,1,2.867-2.83H8.124l.735-1.94A2.862,2.862,0,0,1,11.54,2.25h7.5a2.862,2.862,0,0,1,2.682,1.834l.741,1.94h5.256A2.849,2.849,0,0,1,30.583,8.853Zm-8.124,8.49a7.169,7.169,0,1,0-7.168,7.075A7.128,7.128,0,0,0,22.459,17.343Zm-1.911,0a5.257,5.257,0,1,1-5.256-5.188A5.23,5.23,0,0,1,20.548,17.343Z" transform="translate(0 -2.25)" fill="#106d74"/>
</svg>
