<svg xmlns="http://www.w3.org/2000/svg" width="131" height="130" viewBox="0 0 131 130">
  <g id="level" transform="translate(-0.006 -0.092)">
    <g id="Group_361" data-name="Group 361" transform="translate(0 0)">
      <path id="Path_614" data-name="Path 614" d="M65.5,0C101.675,0,131,29.1,131,65s-29.325,65-65.5,65a65.977,65.977,0,0,1-25.979-5.313A64.933,64.933,0,0,1,0,65C0,29.1,29.325,0,65.5,0Z" transform="translate(0.006 0.092)" fill="#106d74"/>
      <circle id="Ellipse_304" data-name="Ellipse 304" cx="56.498" cy="56.498" r="56.498" transform="translate(8.955 8.538)" fill="#147f87"/>
    </g>
    <path id="Path_394" data-name="Path 394" d="M132.121,86.672,124.374,82.2a1.128,1.128,0,0,0-1.122-1.342H122.7V75.964h.556a1.143,1.143,0,1,0,0-2.285h-.593l4.5-14.054h0l.1-.3a1.258,1.258,0,0,0-.084-1c-.014-.025-.03-.047-.045-.071a1.287,1.287,0,0,0-1.829-.39l-1.376.942-.512.351h0L112.42,66.684l-8.466-14.857a1.291,1.291,0,0,0-2.242,0L93.245,66.684,82.262,59.159h0l-.512-.351-1.376-.942a1.276,1.276,0,0,0-1.645.154,1.354,1.354,0,0,0-.184.236c-.015.024-.032.046-.045.071a1.261,1.261,0,0,0-.084,1l.1.3h0l4.037,12.62h0l.459,1.435h-.593a1.143,1.143,0,0,0-1.143,1.142h0a1.143,1.143,0,0,0,1.143,1.143h.555v4.893h-.556A1.143,1.143,0,0,0,81.271,82h0a1.132,1.132,0,0,0,.02.2l-7.747,4.472a2.188,2.188,0,0,0-1.094,1.895V124.4a2.188,2.188,0,0,0,1.094,1.895l21.529,12.429h0l6.666,3.849a2.186,2.186,0,0,0,2.188,0h0l.931-.537,5.732-3.31h0L132.121,126.3a2.188,2.188,0,0,0,1.094-1.895V88.567A2.189,2.189,0,0,0,132.121,86.672Z" transform="translate(-37.379 -28.158)" fill="#106d74"/>
    <g id="Group_369" data-name="Group 369" transform="translate(35.071 19.19)">
      <g id="Group_362" data-name="Group 362" transform="translate(0 18.925)">
        <path id="Path_395" data-name="Path 395" d="M133.215,135.8V103.244a2.188,2.188,0,0,0-1.094-1.895L103.927,85.071a2.187,2.187,0,0,0-2.188,0L73.545,101.349a2.188,2.188,0,0,0-1.094,1.895V135.8a2.187,2.187,0,0,0,1.094,1.895l28.194,16.278a2.187,2.187,0,0,0,2.188,0l28.194-16.278A2.187,2.187,0,0,0,133.215,135.8Z" transform="translate(-72.451 -81.496)" fill="#136da0"/>
        <path id="Path_396" data-name="Path 396" d="M133.215,129.8V97.244a2.188,2.188,0,0,0-1.094-1.895L103.927,79.071a2.187,2.187,0,0,0-2.188,0L73.545,95.349a2.188,2.188,0,0,0-1.094,1.895V129.8a2.187,2.187,0,0,0,1.094,1.895l28.194,16.278a2.187,2.187,0,0,0,2.188,0l28.194-16.278A2.187,2.187,0,0,0,133.215,129.8Z" transform="translate(-72.451 -78.778)" fill="#53bcc0"/>
        <path id="Path_397" data-name="Path 397" d="M132.553,131.69V102.483a1.231,1.231,0,0,0-.616-1.067l-25.294-14.6a1.231,1.231,0,0,0-1.231,0l-25.294,14.6a1.232,1.232,0,0,0-.616,1.067V131.69a1.231,1.231,0,0,0,.616,1.067l25.294,14.6a1.231,1.231,0,0,0,1.231,0l25.294-14.6A1.231,1.231,0,0,0,132.553,131.69Z" transform="translate(-75.646 -82.344)" fill="#009add"/>
        <path id="Path_398" data-name="Path 398" d="M132.045,132.875V106.927a1.093,1.093,0,0,0-.547-.947L109.027,93.007a1.1,1.1,0,0,0-1.094,0L85.462,105.98a1.093,1.093,0,0,0-.547.947v25.947a1.094,1.094,0,0,0,.547.947L107.933,146.8a1.1,1.1,0,0,0,1.094,0L131.5,133.823A1.1,1.1,0,0,0,132.045,132.875Z" transform="translate(-78.098 -85.158)" fill="#27c1e6"/>
      </g>
      <path id="Path_399" data-name="Path 399" d="M130.347,140.947a4.171,4.171,0,0,0,.5-1.044c.006-.019.013-.037.019-.056.04-.132.073-.266.1-.4,0-.016.006-.033.009-.05a4.082,4.082,0,0,0,.071-.683c0-.033,0-.066,0-.1,0-.107-.011-.212-.021-.319-.007-.076-.011-.152-.022-.228-.014-.094-.034-.187-.054-.28s-.042-.179-.068-.268-.053-.167-.084-.25c-.036-.1-.079-.2-.124-.292-.034-.074-.068-.147-.107-.219-.06-.11-.129-.217-.2-.323-.038-.057-.072-.115-.114-.171a4.233,4.233,0,0,0-.4-.467l-13.721-13.721a4.051,4.051,0,0,0-2.822-1.188l-.043,0h-.01a4.057,4.057,0,0,0-2.875,1.19L96.668,135.8a4.031,4.031,0,0,0-.983,1.585l0,.014a3.9,3.9,0,0,0-.142.565v0a4,4,0,0,0-.046.978c0,.016,0,.032,0,.047.011.123.028.244.05.365.007.038.013.077.02.114s.014.092.025.137c0-.005,0-.011,0-.017l.007.026c.01.04.019.08.03.12a4.32,4.32,0,0,0,.165.491l0,0a4.16,4.16,0,0,0,.568.971l.03.037a4.052,4.052,0,0,0,.358.393l.021.021a3.914,3.914,0,0,0,.943.662l.025.011a3.873,3.873,0,0,0,.491.2l.111.035a4.007,4.007,0,0,0,.467.109c.042.008.083.017.125.023a4.3,4.3,0,0,0,.607.047h27.442a4.284,4.284,0,0,0,.6-.045c.061-.009.119-.022.178-.033a3.9,3.9,0,0,0,.391-.092c.063-.018.125-.037.186-.059.124-.043.244-.092.362-.147.051-.024.1-.044.152-.069a3.86,3.86,0,0,0,.448-.268c.045-.031.084-.067.127-.1.1-.073.189-.147.276-.227.06-.055.116-.113.173-.171s.121-.129.178-.2.118-.141.172-.214C130.271,141.063,130.308,141,130.347,140.947Z" transform="translate(-82.884 -78.93)" fill="#009add"/>
      <path id="Path_400" data-name="Path 400" d="M111.233,79.071a2.187,2.187,0,0,0-2.188,0L90.276,89.907v3.456h-.556A1.143,1.143,0,0,0,88.578,94.5h0a1.157,1.157,0,0,0,1.143,1.143h40.837a1.143,1.143,0,1,0,0-2.285H130V89.907Z" transform="translate(-79.757 -59.853)" fill="#009add"/>
      <g id="Group_365" data-name="Group 365" transform="translate(5.899)">
        <rect id="Rectangle_1180" data-name="Rectangle 1180" width="39.727" height="4.893" transform="translate(4.619 24.788)" fill="#fede3a"/>
        <rect id="Rectangle_1181" data-name="Rectangle 1181" width="28.887" height="4.893" transform="translate(10.039 24.788)" fill="#fff335"/>
        <path id="Path_401" data-name="Path 401" d="M130.558,87.605H89.721a1.142,1.142,0,0,1-1.143-1.143h0a1.142,1.142,0,0,1,1.143-1.143h40.837a1.142,1.142,0,0,1,1.143,1.143h0A1.142,1.142,0,0,1,130.558,87.605Z" transform="translate(-85.657 -62.817)" fill="#fede3a"/>
        <path id="Path_402" data-name="Path 402" d="M129.541,87.605H100.56a1.142,1.142,0,0,1-1.143-1.143h0a1.142,1.142,0,0,1,1.143-1.143h28.981a1.142,1.142,0,0,1,1.143,1.143h0A1.143,1.143,0,0,1,129.541,87.605Z" transform="translate(-90.568 -62.817)" fill="#fff335"/>
        <path id="Path_403" data-name="Path 403" d="M130.558,86.936H89.722a1.126,1.126,0,0,1-.968-.572,1.111,1.111,0,0,0-.175.572h0a1.143,1.143,0,0,0,1.143,1.143h40.837a1.143,1.143,0,0,0,1.143-1.143h0a1.112,1.112,0,0,0-.175-.572A1.126,1.126,0,0,1,130.558,86.936Z" transform="translate(-85.657 -63.29)" fill="#fede3a"/>
        <path id="Path_404" data-name="Path 404" d="M130.558,100.73H89.721a1.142,1.142,0,0,1-1.143-1.143h0a1.142,1.142,0,0,1,1.143-1.143h40.837a1.142,1.142,0,0,1,1.143,1.143h0A1.143,1.143,0,0,1,130.558,100.73Z" transform="translate(-85.657 -68.763)" fill="#f7cb15"/>
        <path id="Path_405" data-name="Path 405" d="M129.71,100.73H100.39a.973.973,0,0,1-.973-.973v-.34a.973.973,0,0,1,.973-.973h29.32a.973.973,0,0,1,.973.973v.34A.973.973,0,0,1,129.71,100.73Z" transform="translate(-90.568 -68.763)" fill="#fede3a"/>
        <path id="Path_406" data-name="Path 406" d="M130.558,100.06H89.722a1.126,1.126,0,0,1-.968-.572,1.112,1.112,0,0,0-.175.572,1.143,1.143,0,0,0,1.143,1.143h40.837a1.142,1.142,0,0,0,1.143-1.143,1.112,1.112,0,0,0-.175-.572A1.126,1.126,0,0,1,130.558,100.06Z" transform="translate(-85.657 -69.236)" fill="#f7cb15"/>
        <g id="Group_363" data-name="Group 363" transform="translate(0 6.458)">
          <path id="Path_407" data-name="Path 407" d="M83.3,57.673,87.9,72.029h20.448L85.261,56.215A1.29,1.29,0,0,0,83.3,57.673Z" transform="translate(-83.237 -55.984)" fill="#fede3a"/>
          <path id="Path_408" data-name="Path 408" d="M87.149,57.509l-1.888-1.294A1.291,1.291,0,0,0,83.3,57.673l4.592,14.356h3.871L87.173,57.673A1.32,1.32,0,0,1,87.149,57.509Z" transform="translate(-83.237 -55.984)" fill="#f7cb15"/>
          <path id="Path_409" data-name="Path 409" d="M83.4,57.975a1.279,1.279,0,0,1,1.862-.469l21.2,14.523h1.884L85.261,56.215A1.291,1.291,0,0,0,83.3,57.673Z" transform="translate(-83.237 -55.984)" fill="#fff335"/>
          <path id="Path_410" data-name="Path 410" d="M151.9,57.673l-4.592,14.356H126.86l23.082-15.814A1.29,1.29,0,0,1,151.9,57.673Z" transform="translate(-103.001 -55.984)" fill="#fede3a"/>
          <path id="Path_411" data-name="Path 411" d="M163.674,56.215l-1.888,1.294a1.247,1.247,0,0,1-.025.165L157.169,72.03h3.871l4.592-14.356A1.29,1.29,0,0,0,163.674,56.215Z" transform="translate(-116.733 -55.984)" fill="#f7cb15"/>
          <path id="Path_412" data-name="Path 412" d="M149.943,57.507a1.279,1.279,0,0,1,1.862.469l.1-.3a1.29,1.29,0,0,0-1.958-1.458L126.86,72.03h1.884Z" transform="translate(-103.001 -55.984)" fill="#fff335"/>
        </g>
        <path id="Path_413" data-name="Path 413" d="M115.635,44.827,103.182,66.679h27.149L117.877,44.827A1.291,1.291,0,0,0,115.635,44.827Z" transform="translate(-92.273 -44.176)" fill="#f7cb15"/>
        <path id="Path_414" data-name="Path 414" d="M115.635,47.408a1.291,1.291,0,0,1,2.242,0L128.859,66.68h1.471L117.877,44.827a1.291,1.291,0,0,0-2.242,0L103.182,66.679h1.471Z" transform="translate(-92.273 -44.176)" fill="#fff335"/>
        <rect id="Rectangle_1182" data-name="Rectangle 1182" width="6.638" height="6.638" transform="translate(19.788 14.896) rotate(-45)" fill="#fede3a"/>
        <path id="Path_415" data-name="Path 415" d="M128,62.828v4.694h4.693Z" transform="translate(-103.517 -52.626)" fill="#fff"/>
        <path id="Path_416" data-name="Path 416" d="M132.693,71.41H128V76.1Z" transform="translate(-103.517 -56.515)" fill="#fff335"/>
        <path id="Path_417" data-name="Path 417" d="M124.112,62.828v4.694h-4.694Z" transform="translate(-99.629 -52.626)" fill="#fede3a"/>
        <path id="Path_418" data-name="Path 418" d="M119.418,71.41h4.694V76.1Z" transform="translate(-99.629 -56.515)" fill="#e7ad27"/>
        <path id="Path_419" data-name="Path 419" d="M90.913,82.027v.367l.459,1.434H111.82l-2.629-1.8Z" transform="translate(-86.715 -61.325)" fill="#f7cb15"/>
        <path id="Path_420" data-name="Path 420" d="M129.489,82.027l-2.629,1.8h20.448l.576-1.8Z" transform="translate(-103.001 -61.325)" fill="#f7cb15"/>
        <path id="Path_421" data-name="Path 421" d="M104.208,82.027l-1.026,1.8H130.33l-1.026-1.8Z" transform="translate(-92.273 -61.325)" fill="#e7ad27"/>
        <g id="Group_364" data-name="Group 364" transform="translate(8.849 26.045)">
          <path id="Path_422" data-name="Path 422" d="M101.8,92.986a1.19,1.19,0,1,1-1.19-1.19A1.19,1.19,0,0,1,101.8,92.986Z" transform="translate(-99.417 -91.796)" fill="#f7cb15"/>
          <path id="Path_423" data-name="Path 423" d="M115,92.986a1.19,1.19,0,1,1-1.19-1.19A1.19,1.19,0,0,1,115,92.986Z" transform="translate(-105.399 -91.796)" fill="#f7cb15"/>
          <path id="Path_424" data-name="Path 424" d="M128.2,92.986a1.19,1.19,0,1,1-1.19-1.19A1.19,1.19,0,0,1,128.2,92.986Z" transform="translate(-111.381 -91.796)" fill="#f7cb15"/>
          <path id="Path_425" data-name="Path 425" d="M141.408,92.986a1.19,1.19,0,1,1-1.19-1.19A1.19,1.19,0,0,1,141.408,92.986Z" transform="translate(-117.364 -91.796)" fill="#f7cb15"/>
          <path id="Path_426" data-name="Path 426" d="M154.612,92.986a1.19,1.19,0,1,1-1.19-1.19A1.19,1.19,0,0,1,154.612,92.986Z" transform="translate(-123.346 -91.796)" fill="#f7cb15"/>
        </g>
      </g>
      <g id="Group_368" data-name="Group 368" transform="translate(12.59 39.22)">
        <g id="Group_366" data-name="Group 366">
          <path id="Path_427" data-name="Path 427" d="M110.4,117.075a4.052,4.052,0,0,1,2.875-1.19v21.852H99.555A4.066,4.066,0,0,1,96.68,130.8Z" transform="translate(-95.475 -115.885)" fill="#f7cb15"/>
          <path id="Path_428" data-name="Path 428" d="M130.873,117.075a4.052,4.052,0,0,0-2.875-1.19v21.852h13.721a4.066,4.066,0,0,0,2.875-6.941Z" transform="translate(-110.207 -115.885)" fill="#fede3a"/>
          <path id="Path_429" data-name="Path 429" d="M130.913,146.455H95.619a4.069,4.069,0,0,0,3.925,5.132h27.442A4.069,4.069,0,0,0,130.913,146.455Z" transform="translate(-95.475 -129.735)" fill="#e7ad27"/>
          <path id="Path_430" data-name="Path 430" d="M96.665,132.682l13.721-13.721a4.068,4.068,0,0,1,5.751,0l13.721,13.721a4.012,4.012,0,0,1,1.079,1.921,3.982,3.982,0,0,0-1.079-3.807l-13.721-13.721a4.068,4.068,0,0,0-5.751,0L96.665,130.8a3.981,3.981,0,0,0-1.08,3.807A4.018,4.018,0,0,1,96.665,132.682Z" transform="translate(-95.47 -115.885)" fill="#fff335"/>
        </g>
        <g id="Group_367" data-name="Group 367" transform="translate(10.032 21.852)">
          <path id="Path_431" data-name="Path 431" d="M113.813,182.317l6.666,3.848a2.186,2.186,0,0,0,2.188,0l6.663-3.847V155.837H113.814v26.48Z" transform="translate(-113.812 -155.837)" fill="#fede3a"/>
          <path id="Path_432" data-name="Path 432" d="M122.666,202.1a2.187,2.187,0,0,1-2.188,0l-6.666-3.848v3.282l6.666,3.848a2.187,2.187,0,0,0,2.188,0l6.663-3.847v-3.282Z" transform="translate(-113.812 -175.054)" fill="#e7ad27"/>
          <path id="Path_433" data-name="Path 433" d="M113.813,179.036l2.691,1.554,3.974,2.294a2.189,2.189,0,0,0,1.092.293V155.838h-7.758v23.2Z" transform="translate(-113.812 -155.837)" fill="#f7cb15"/>
          <rect id="Rectangle_1183" data-name="Rectangle 1183" width="15.516" height="5.381" transform="translate(0.001 0.001)" fill="#f7cb15"/>
          <path id="Path_434" data-name="Path 434" d="M138.5,155.838V180.2l2.014-1.163v-23.2Z" transform="translate(-124.997 -155.837)" fill="#fff335"/>
        </g>
      </g>
    </g>
  </g>
</svg>
