<svg xmlns="http://www.w3.org/2000/svg" width="123" height="123" viewBox="0 0 123 123">
  <defs>
    <style>
      .cls-1, .cls-23 {
        fill: none;
      }

      .cls-1 {
        stroke: #fdd343;
        stroke-width: 3px;
      }

      .cls-2 {
        fill: #7c6bd2;
      }

      .cls-3 {
        fill: #fed943;
      }

      .cls-4 {
        fill: #384e75;
      }

      .cls-5 {
        fill: #2a3860;
      }

      .cls-6 {
        fill: #9d9bf6;
      }

      .cls-7 {
        fill: #bcc4ff;
      }

      .cls-8 {
        fill: #32bea6;
      }

      .cls-9 {
        fill: #009c99;
      }

      .cls-10 {
        fill: #83d947;
      }

      .cls-11 {
        fill: #fcbe2c;
      }

      .cls-12 {
        fill: #f7a831;
      }

      .cls-13 {
        fill: #fd9127;
      }

      .cls-14 {
        fill: #edf5ff;
      }

      .cls-15 {
        fill: #d6e8fd;
      }

      .cls-16 {
        fill: #bcdefd;
      }

      .cls-17 {
        fill: #9e1961;
      }

      .cls-18 {
        fill: #f75f79;
      }

      .cls-19 {
        fill: #cf3086;
      }

      .cls-20 {
        fill: #f8f6f2;
      }

      .cls-21 {
        fill: #f2ede5;
      }

      .cls-22 {
        stroke: none;
      }
    </style>
  </defs>
  <g id="All_Categories" data-name="All Categories" transform="translate(-281 -322)">
    <g id="Rectangle_1968" data-name="Rectangle 1968" class="cls-1" transform="translate(281 322)">
      <rect class="cls-22" width="123" height="123" rx="12"/>
      <rect class="cls-23" x="1.5" y="1.5" width="120" height="120" rx="10.5"/>
    </g>
    <g id="Group_6458" data-name="Group 6458" transform="translate(4314 -9717.527)">
      <g id="_004-watering_plants" data-name="004-watering plants" transform="translate(-4022 10050.479)">
        <g id="Group_6046" data-name="Group 6046" transform="translate(11.379 0.069)">
          <g id="Group_6043" data-name="Group 6043" transform="translate(22.206)">
            <path id="Path_7838" data-name="Path 7838" class="cls-2" d="M386.491,2.261a5.132,5.132,0,0,0-7.212-.027c-1.051,1.036-2.256,2.224-3.458,3.413h3.815l1.525-1.5A2.438,2.438,0,0,1,384.6,7.6l-.906.906V9.979l1.162,1.162,1.64-1.64a5.119,5.119,0,0,0,0-7.239Z" transform="translate(-375.821 -0.767)"/>
          </g>
          <g id="Group_6044" data-name="Group 6044" transform="translate(0 24.525)">
            <path id="Path_7839" data-name="Path 7839" class="cls-3" d="M127.333,275.213h2.681v2.681h-2.681Z" transform="translate(-127.333 -275.213)"/>
          </g>
          <g id="Group_6045" data-name="Group 6045" transform="translate(5.292 21.021)">
            <path id="Path_7840" data-name="Path 7840" class="cls-3" d="M186.556,235.992h2.681v2.681h-2.681Z" transform="translate(-186.556 -235.992)"/>
          </g>
        </g>
        <g id="Group_6047" data-name="Group 6047" transform="translate(24.566 0.717)">
          <path id="Path_7841" data-name="Path 7841" class="cls-4" d="M274.9,19.707l2.87,2.87,1.585-1.418-3.523-2.383Z" transform="translate(-274.896 -17.815)"/>
          <path id="Path_7842" data-name="Path 7842" class="cls-5" d="M0,0H1.364V4.058H0Z" transform="translate(0.928 0.964) rotate(-45)"/>
        </g>
        <g id="Group_6049" data-name="Group 6049" transform="translate(21.672 0)">
          <path id="Path_7843" data-name="Path 7843" class="cls-6" d="M269.723,39.612,267.332,42a4.054,4.054,0,0,0,0,5.726l.978.978,6.633-5.254Z" transform="translate(-264.035 -36.072)"/>
          <g id="Group_6048" data-name="Group 6048" transform="translate(5.688)">
            <path id="Path_7844" data-name="Path 7844" class="cls-2" d="M315.215,2.162l-.978-.978a4.054,4.054,0,0,0-5.726,0L306.155,3.54,310,7.381Z" transform="translate(-306.155 0)"/>
          </g>
          <path id="Path_7845" data-name="Path 7845" class="cls-7" d="M246.784,87.847l2.544,2.544L242.51,94.2l1.912,1.912,7.549.039h.052a10.248,10.248,0,0,0,7.2-2.982l1.7-1.7-3.412-5.236-5.471-3.648Z" transform="translate(-242.51 -75.212)"/>
          <path id="Path_7846" data-name="Path 7846" class="cls-6" d="M0,0H7.381V12.563H0Z" transform="translate(9.524 7.384) rotate(-45)"/>
        </g>
        <g id="Group_6050" data-name="Group 6050" transform="translate(2.309 30.687)">
          <path id="Path_7847" data-name="Path 7847" class="cls-8" d="M116.1,407.841v7.079h1.343l.672-3.3-.672-3.777Z" transform="translate(-108.035 -402.082)"/>
          <path id="Path_7848" data-name="Path 7848" class="cls-9" d="M131.13,407.841h1.343v7.079H131.13Z" transform="translate(-121.721 -402.082)"/>
          <path id="Path_7849" data-name="Path 7849" class="cls-10" d="M30.621,343.4H25.837v2.718a5.029,5.029,0,0,0,5.023,5.023h4.386l.75-2.214-.75-2.463A5.031,5.031,0,0,0,30.621,343.4Z" transform="translate(-25.837 -343.399)"/>
          <path id="Path_7850" data-name="Path 7850" class="cls-8" d="M135.757,343.4a5.031,5.031,0,0,0-4.627,3.069l0-.006v4.677h4.391a5.029,5.029,0,0,0,5.023-5.023V343.4Z" transform="translate(-121.718 -343.399)"/>
          <path id="Path_7851" data-name="Path 7851" class="cls-8" d="M365.789,407.841v7.079h1.343l.672-3.3-.672-3.777Z" transform="translate(-335.41 -402.082)"/>
          <path id="Path_7852" data-name="Path 7852" class="cls-9" d="M380.818,407.841h1.343v7.079h-1.343Z" transform="translate(-349.096 -402.082)"/>
          <path id="Path_7853" data-name="Path 7853" class="cls-10" d="M280.309,343.4h-4.784v2.718a5.029,5.029,0,0,0,5.023,5.023h4.386l.75-2.214-.75-2.463A5.031,5.031,0,0,0,280.309,343.4Z" transform="translate(-253.212 -343.399)"/>
          <path id="Path_7854" data-name="Path 7854" class="cls-8" d="M385.445,343.4a5.031,5.031,0,0,0-4.627,3.069l0-.006v4.677h4.391a5.029,5.029,0,0,0,5.023-5.023V343.4Z" transform="translate(-349.093 -343.399)"/>
        </g>
        <g id="Group_6051" data-name="Group 6051" transform="translate(0 43.073)">
          <path id="Path_7855" data-name="Path 7855" class="cls-11" d="M0,482v2.681H22.877l1.4-1.136L22.877,482Z" transform="translate(0 -482)"/>
        </g>
        <path id="Path_7856" data-name="Path 7856" class="cls-12" d="M256,482h22.877v2.681H256Z" transform="translate(-233.123 -438.927)"/>
      </g>
      <g id="_008-origami" data-name="008-origami" transform="translate(-3965.855 10050.479)">
        <g id="Group_6090" data-name="Group 6090" transform="translate(22.363 22.362)">
          <path id="Path_7914" data-name="Path 7914" class="cls-10" d="M250.243,250.243v23.392h11.768l3.032-11.46-3.032-11.931Z" transform="translate(-250.243 -250.243)"/>
          <path id="Path_7915" data-name="Path 7915" class="cls-8" d="M381.931,250.243h11.623v23.392H381.931Z" transform="translate(-370.163 -250.243)"/>
        </g>
        <g id="Group_6091" data-name="Group 6091" transform="translate(17.658 17.004)">
          <path id="Path_7916" data-name="Path 7916" class="cls-7" d="M197.6,198.272v15.4h11.756l2.291-12.162-2.291-11.227Z" transform="translate(-197.602 -190.279)"/>
        </g>
        <path id="Path_7917" data-name="Path 7917" class="cls-6" d="M340.8,190.279H329.159v23.389h3.876l7.763-7.77Z" transform="translate(-299.744 -173.275)"/>
        <g id="Group_6092" data-name="Group 6092" transform="translate(33.291 32.623)">
          <path id="Path_7918" data-name="Path 7918" class="cls-2" d="M372.532,365.064v7.77l4.943-3.254,2.82-4.515Z" transform="translate(-372.532 -365.064)"/>
          <path id="Path_7919" data-name="Path 7919" class="cls-7" d="M372.532,372.834H380.3v-7.77Z" transform="translate(-372.532 -365.064)"/>
        </g>
        <g id="Group_6094" data-name="Group 6094" transform="translate(0 0)">
          <path id="Path_7920" data-name="Path 7920" class="cls-12" d="M375.385,10.027,363.659,0l-1.68,10.027Z" transform="translate(-329.631)"/>
          <path id="Path_7921" data-name="Path 7921" class="cls-13" d="M278.1,17.073V0L268.019,7.818Z" transform="translate(-244.068)"/>
          <path id="Path_7922" data-name="Path 7922" class="cls-3" d="M19.209,186.974,0,202.935l18.278-30.329,2.837,10.945Z" transform="translate(0 -157.182)"/>
          <g id="Group_6093" data-name="Group 6093" transform="translate(0.018 0.086)">
            <path id="Path_7923" data-name="Path 7923" class="cls-11" d="M18.031.962H.2L19.515,20.569Z" transform="translate(-0.196 -0.962)"/>
            <path id="Path_7924" data-name="Path 7924" class="cls-12" d="M199.775.962,215.95,17.949l-14.819,12.72Z" transform="translate(-181.94 -0.962)"/>
          </g>
        </g>
      </g>
      <g id="_003-painting" data-name="003-painting" transform="translate(-4019.594 10105.822)">
        <path id="Path_7817" data-name="Path 7817" class="cls-11" d="M241,0V4.272h1.34l.537-1.741L242.34,0Z" transform="translate(-221.772 0)"/>
        <path id="Path_7818" data-name="Path 7818" class="cls-12" d="M150.772,434.785v2.681h9.4l.655-1.167-.655-1.514Z" transform="translate(-139.608 -395.931)"/>
        <path id="Path_7819" data-name="Path 7819" class="cls-13" d="M256,434.785h9.406v2.681H256Z" transform="translate(-235.432 -395.931)"/>
        <path id="Path_7820" data-name="Path 7820" class="cls-11" d="M241,402.074h1.34l.36-5.386-.36-5.4H241Z" transform="translate(-221.772 -356.32)"/>
        <path id="Path_7821" data-name="Path 7821" class="cls-11" d="M0,0H2.681V12.735H0Z" transform="translate(24.718 35.845) rotate(-38.83)"/>
        <g id="Group_6037" data-name="Group 6037" transform="translate(6.346 34.144)">
          <path id="Path_7822" data-name="Path 7822" class="cls-11" d="M0,0H12.735V2.681H0Z" transform="translate(0 9.921) rotate(-51.17)"/>
        </g>
        <path id="Path_7823" data-name="Path 7823" class="cls-12" d="M256,391.287h1.34v10.787H256Z" transform="translate(-235.432 -356.32)"/>
        <g id="Group_6038" data-name="Group 6038" transform="translate(0 5.647)">
          <path id="Path_7824" data-name="Path 7824" class="cls-14" d="M25.839,63.188V93.849H46.407l.714-14.12-.714-16.54Z" transform="translate(-25.839 -63.188)"/>
          <path id="Path_7825" data-name="Path 7825" class="cls-15" d="M256,63.188h20.568V93.849H256Z" transform="translate(-235.432 -63.188)"/>
        </g>
        <g id="Group_6039" data-name="Group 6039" transform="translate(14.051 18.645)">
          <path id="Path_7826" data-name="Path 7826" class="cls-15" d="M183.077,210.343v8.989h6.517l1.128-6.552-1.128-4.132Z" transform="translate(-183.077 -208.647)"/>
          <path id="Path_7827" data-name="Path 7827" class="cls-16" d="M262.517,210.343l-6.517-1.7v10.684h6.517Z" transform="translate(-249.483 -208.647)"/>
        </g>
        <g id="Group_6040" data-name="Group 6040" transform="translate(19.228 23.65)">
          <path id="Path_7828" data-name="Path 7828" class="cls-7" d="M241,264.652V270.4h1.34l.537-2.782-.537-2.964Z" transform="translate(-241 -264.652)"/>
        </g>
        <g id="Group_6041" data-name="Group 6041" transform="translate(22.654 14.758)">
          <path id="Path_7829" data-name="Path 7829" class="cls-17" d="M279.338,165.145h2.681v4.586h-2.681Z" transform="translate(-279.338 -165.145)"/>
        </g>
        <path id="Path_7830" data-name="Path 7830" class="cls-18" d="M183.084,175.624H189.6l.832-1.99-.832-3.112Z" transform="translate(-169.032 -155.284)"/>
        <path id="Path_7831" data-name="Path 7831" class="cls-19" d="M256,170.522v5.1h6.516Z" transform="translate(-235.432 -155.284)"/>
        <path id="Path_7832" data-name="Path 7832" class="cls-6" d="M256,264.652h1.34V270.4H256Z" transform="translate(-235.432 -241.002)"/>
        <g id="Group_6042" data-name="Group 6042" transform="translate(7.567 28.075)">
          <path id="Path_7833" data-name="Path 7833" class="cls-10" d="M110.512,314.169v2.681h13l.773-1.308-.773-1.372Z" transform="translate(-110.512 -314.169)"/>
        </g>
        <path id="Path_7834" data-name="Path 7834" class="cls-8" d="M256,314.169h13v2.681H256Z" transform="translate(-235.432 -286.094)"/>
        <path id="Path_7835" data-name="Path 7835" class="cls-12" d="M256,0h1.34V4.272H256Z" transform="translate(-235.432 0)"/>
        <path id="Path_7836" data-name="Path 7836" class="cls-3" d="M156.756,35.8v5.765h8.869l.95-2.6-.95-3.168Z" transform="translate(-145.057 -32.604)"/>
        <path id="Path_7837" data-name="Path 7837" class="cls-11" d="M256,35.8h8.869v5.765H256Z" transform="translate(-235.432 -32.604)"/>
      </g>
      <g id="_050-cooking" data-name="050-cooking" transform="translate(-3965.855 10105.822)">
        <g id="Group_6440" data-name="Group 6440" transform="translate(0 27.976)">
          <path id="Path_8492" data-name="Path 8492" class="cls-8" d="M7.135,322.839H4.89a4.89,4.89,0,0,1,0-9.78H7.135v2.667H4.89a2.223,2.223,0,1,0,0,4.445H7.135v2.667Z" transform="translate(0 -313.059)"/>
        </g>
        <g id="Group_6441" data-name="Group 6441" transform="translate(38.619 27.976)">
          <path id="Path_8493" data-name="Path 8493" class="cls-9" d="M434.4,322.839h-2.245v-2.667H434.4a2.223,2.223,0,1,0,0-4.445h-2.245v-2.667H434.4a4.89,4.89,0,1,1,0,9.78Z" transform="translate(-432.155 -313.059)"/>
        </g>
        <g id="Group_6443" data-name="Group 6443" transform="translate(13.681 0)">
          <g id="Group_6442" data-name="Group 6442">
            <path id="Path_8494" data-name="Path 8494" class="cls-20" d="M155.77,0h-2.679V2.148l1.876,2.682V6.238h2.68V3.986L155.77,1.3Z" transform="translate(-153.091)"/>
            <path id="Path_8495" data-name="Path 8495" class="cls-20" d="M230.514,0V2.148L232.39,4.83V6.238h.4l.325-2.665L232.785,0Z" transform="translate(-223.595)"/>
            <path id="Path_8496" data-name="Path 8496" class="cls-21" d="M310.615,1.3V0h-2.68V2.148l1.876,2.682V6.238h2.679V3.986Z" transform="translate(-294.098)"/>
          </g>
          <path id="Path_8497" data-name="Path 8497" class="cls-21" d="M256.332,0h-.409V6.238h2.284V3.986L256.332,1.3Z" transform="translate(-246.734)"/>
        </g>
        <g id="Group_6444" data-name="Group 6444" transform="translate(5.802 14.395)">
          <path id="Path_8498" data-name="Path 8498" class="cls-14" d="M64.922,169.508v1.008H81.96l1.65-4.624L81.9,161.485Z" transform="translate(-64.922 -161.449)"/>
          <path id="Path_8499" data-name="Path 8499" class="cls-15" d="M272.1,169.14l-17.059-8.059-.076.036.055,9.032H272.1Z" transform="translate(-237.981 -161.081)"/>
        </g>
        <g id="Group_6445" data-name="Group 6445" transform="translate(5.802 23.462)">
          <path id="Path_8500" data-name="Path 8500" class="cls-10" d="M64.922,262.551V280.4a4.45,4.45,0,0,0,4.445,4.445H82.1l2.044-13.634-2.181-8.657H64.922Z" transform="translate(-64.922 -262.551)"/>
          <path id="Path_8501" data-name="Path 8501" class="cls-8" d="M255.584,262.552l.137,22.292h12.5a4.45,4.45,0,0,0,4.445-4.445V262.552Z" transform="translate(-238.546 -262.552)"/>
        </g>
        <g id="Group_6446" data-name="Group 6446" transform="translate(3.435 21.806)">
          <path id="Path_8502" data-name="Path 8502" class="cls-8" d="M38.433,244.02v2.667H57.845l.935-1.208-.952-1.459Z" transform="translate(-38.433 -244.02)"/>
        </g>
        <path id="Path_8503" data-name="Path 8503" class="cls-9" d="M275.034,244.02H255.47l.016,2.667h19.547Z" transform="translate(-232.64 -222.214)"/>
        <g id="Group_6448" data-name="Group 6448" transform="translate(20.305 10.048)">
          <g id="Group_6447" data-name="Group 6447">
            <path id="Path_8504" data-name="Path 8504" class="cls-3" d="M229.789,112.44a2.572,2.572,0,0,0,0,5.144l.816-2.616Z" transform="translate(-227.217 -112.44)"/>
          </g>
          <path id="Path_8505" data-name="Path 8505" class="cls-11" d="M258.572,115.012A2.575,2.575,0,0,0,256,112.44v5.144A2.575,2.575,0,0,0,258.572,115.012Z" transform="translate(-253.428 -112.44)"/>
        </g>
      </g>
    </g>
  </g>
</svg>
