<svg xmlns="http://www.w3.org/2000/svg" xmlns:xlink="http://www.w3.org/1999/xlink" width="88" height="87" viewBox="0 0 88 87">
  <defs>
    <clipPath id="clip-path">
      <ellipse id="Ellipse_283" data-name="Ellipse 283" cx="44" cy="43.5" rx="44" ry="43.5" transform="translate(0.319)" fill="#fff" stroke="#707070" stroke-width="1"/>
    </clipPath>
  </defs>
  <g id="Mask_Group_2" data-name="Mask Group 2" transform="translate(-0.319)" clip-path="url(#clip-path)">
    <g id="XMLID_178_" transform="translate(7.273 -0.482)">
      <path id="XMLID_198_" d="M30.97,50.276H26.627a6.685,6.685,0,0,1-6.686-6.686V33.912a6.684,6.684,0,0,1,6.686-6.686H30.97a6.684,6.684,0,0,1,6.686,6.686V43.59A6.685,6.685,0,0,1,30.97,50.276Z" transform="translate(7.725 20.446)" fill="#edbb98"/>
      <path id="XMLID_197_" d="M49.522,36.484v.154a6.685,6.685,0,0,1-6.686,6.686H38.493a6.684,6.684,0,0,1-6.686-6.686v-.154C17.888,39.494,7.047,48.762,4.141,60.081c-.034.154,18.433,0,36.524,0s36.575.154,36.524,0C74.281,48.762,63.44,39.494,49.522,36.484Z" transform="translate(-4.141 27.398)" fill="#29abe2"/>
      <g id="XMLID_179_" transform="translate(9.011)">
        <ellipse id="XMLID_196_" cx="4.908" cy="6.771" rx="4.908" ry="6.771" transform="translate(46.282 29.051) rotate(12.263)" fill="#f4c5a2"/>
        <ellipse id="XMLID_195_" cx="4.908" cy="6.771" rx="4.908" ry="6.771" transform="translate(12.468 42.728) rotate(167.737)" fill="#f4c5a2"/>
        <ellipse id="XMLID_194_" cx="21.066" cy="24.571" rx="21.066" ry="24.571" transform="translate(6.925 11.713)" fill="#f4c5a2"/>
        <g id="XMLID_183_" transform="translate(14.055 27.163)">
          <g id="XMLID_189_" transform="translate(17.92)">
            <path id="XMLID_193_" d="M27.549,18.274a5.338,5.338,0,0,1,2.1-1.983,6.105,6.105,0,0,1,2.873-.769,6.468,6.468,0,0,1,1.522.137,5.6,5.6,0,0,1,1.4.564,5.067,5.067,0,0,1,1.2.889,3.09,3.09,0,0,1,.479.564c.137.205.274.393.393.616-.5-.1-.906-.291-1.334-.393a11.6,11.6,0,0,0-1.231-.291c-.393-.1-.8-.12-1.18-.188-.393,0-.787-.051-1.18-.017a15.1,15.1,0,0,0-2.411.274C29.344,17.829,28.489,18.034,27.549,18.274Z" transform="translate(-27.549 -15.513)" fill="#333"/>
            <g id="XMLID_190_" transform="translate(2.445 4.06)">
              <circle id="XMLID_192_" cx="2.531" cy="2.531" r="2.531" fill="#333"/>
              <circle id="XMLID_191_" cx="0.633" cy="0.633" r="0.633" transform="translate(2.325 0.051)" fill="#f2f2f2"/>
            </g>
          </g>
          <g id="XMLID_184_">
            <path id="XMLID_188_" d="M17.314,18.274a5.339,5.339,0,0,1,2.1-1.983,6.105,6.105,0,0,1,2.873-.769,6.468,6.468,0,0,1,1.522.137,5.6,5.6,0,0,1,1.4.564,5.067,5.067,0,0,1,1.2.889,3.09,3.09,0,0,1,.479.564c.137.205.274.393.393.616-.5-.1-.906-.291-1.334-.393a11.6,11.6,0,0,0-1.231-.291c-.393-.1-.8-.12-1.18-.188-.393,0-.787-.051-1.18-.017a15.1,15.1,0,0,0-2.411.274C19.093,17.829,18.255,18.034,17.314,18.274Z" transform="translate(-17.314 -15.513)" fill="#333"/>
            <g id="XMLID_185_" transform="translate(2.445 4.06)">
              <circle id="XMLID_187_" cx="2.531" cy="2.531" r="2.531" fill="#333"/>
              <circle id="XMLID_186_" cx="0.633" cy="0.633" r="0.633" transform="translate(2.308 0.051)" fill="#f2f2f2"/>
            </g>
          </g>
        </g>
        <path id="XMLID_182_" d="M20.879,27.188a20.2,20.2,0,0,0,3.813,1.231,17.342,17.342,0,0,0,3.864.393,8.749,8.749,0,0,0,.958-.051,8.664,8.664,0,0,0,.958-.085c.325-.051.633-.1.958-.137l.958-.205.479-.1c.154-.034.308-.1.479-.137l.958-.274c.65-.188,1.265-.462,1.949-.633a16.984,16.984,0,0,1-1.659,1.265,12.872,12.872,0,0,1-1.881.94c-.325.12-.667.256-.992.359-.342.085-.684.154-1.043.239a7.2,7.2,0,0,1-1.06.154,7.518,7.518,0,0,1-1.06.068,10.952,10.952,0,0,1-4.189-.752A9.353,9.353,0,0,1,20.879,27.188Z" transform="translate(-0.583 20.416)" fill="#f4a56e"/>
        <path id="XMLID_181_" d="M23.242,24.072c.684.188,1.282.342,1.864.445a9.87,9.87,0,0,0,1.71.188,7.3,7.3,0,0,0,1.693-.171c.291-.034.581-.137.889-.205s.616-.205.975-.256a4.344,4.344,0,0,1-.616.855,4.143,4.143,0,0,1-2.958,1.2,4.412,4.412,0,0,1-2.086-.547A4,4,0,0,1,23.242,24.072Z" transform="translate(1.192 18.077)" fill="#f4a56e"/>
        <path id="XMLID_180_" d="M37.116,16.518s4.634,9.2,15.338,10c0,0,3.061,6.481,1.419,9.746l3.711-5.814s3.266-.872,5.113,1.436c0,0,4.412-19.8-9.439-27.6a20.082,20.082,0,0,1,2.787-1.624c.342,0-3.711.239-4.993.923V0L48.606,3.027S33.969-5.215,17.093,6.07c0,0-11.713,9.541-6.036,26.931,0,0,1.847-3.967,5.455-1.778a34.224,34.224,0,0,0,3.8,5.933s-2.531-9.575,2.24-15.389c0,0,.53,4.121,3.061,4.771,0,0-1.471-3.3.65-7.951,0,0,1.693,9.1,9.3,9.234C35.594,27.8,30.293,20.023,37.116,16.518Z" transform="translate(-9.125)" fill="#3f2820"/>
      </g>
    </g>
  </g>
</svg>
