<svg xmlns="http://www.w3.org/2000/svg" width="131.8" height="131.8" viewBox="0 0 131.8 131.8">
  <g id="_067-treasure-1" data-name="067-treasure-1" transform="translate(-8.6 -8.6)">
    <g id="Group_5949" data-name="Group 5949" transform="translate(8.6 8.6)">
      <circle id="Ellipse_1014" data-name="Ellipse 1014" cx="65.9" cy="65.9" r="65.9" fill="#106d74"/>
      <circle id="Ellipse_1015" data-name="Ellipse 1015" cx="57.014" cy="57.014" r="57.014" transform="translate(8.887 8.887)" fill="#147f87"/>
    </g>
    <path id="Path_7563" data-name="Path 7563" d="M136.39,97.917l-.955-.5c.206-.318.4-.63.57-.934a.484.484,0,0,0,.059-.211.44.44,0,0,0,0-.054.483.483,0,0,0-.031-.156c0-.007,0-.015,0-.023l0,.006a.484.484,0,0,0-.216-.241l-2.295-1.2h0L127.8,91.638l5.462-5.828h0c0-.389-.017-.773-.042-1.155-.006-.089-.013-.177-.02-.265-.029-.36-.067-.716-.117-1.07,0-.017,0-.034-.007-.05q-.089-.608-.22-1.2l-.007-.031a17.434,17.434,0,0,0-4.267-8.126l-.078-.081q-.271-.287-.554-.562l-.12-.114q-.268-.256-.548-.5l-.141-.123q-.277-.237-.563-.462l-.149-.117c-.2-.151-.4-.3-.6-.441-.045-.032-.089-.065-.135-.1q-.337-.233-.686-.449l-.074-.047a17.411,17.411,0,0,0-1.634-.891L123.254,70q-.381-.18-.77-.342c-.075-.031-.151-.059-.227-.089-.2-.082-.41-.161-.618-.235-.1-.035-.2-.067-.3-.1-.189-.063-.378-.125-.57-.182-.111-.033-.222-.064-.334-.095q-.275-.075-.552-.143-.177-.043-.356-.082c-.184-.04-.369-.076-.554-.11-.121-.022-.242-.045-.364-.065-.19-.031-.381-.057-.573-.081-.119-.015-.238-.033-.358-.045-.209-.023-.421-.039-.632-.054-.1-.007-.206-.018-.31-.024-.312-.017-.626-.026-.942-.026H79.715c-.316,0-.63.01-.942.026-.1.006-.206.016-.31.024-.211.015-.423.031-.632.054-.12.013-.238.03-.358.045-.192.025-.384.05-.573.081-.122.02-.243.043-.364.065q-.278.051-.554.11-.179.039-.357.082-.278.067-.552.143c-.111.031-.224.062-.334.095-.192.057-.381.118-.57.182-.1.033-.2.065-.3.1-.208.074-.413.153-.618.235-.075.03-.152.058-.226.089q-.39.162-.77.342l-.051.023a17.481,17.481,0,0,0-1.634.891l-.074.047q-.348.217-.685.449l-.135.1q-.3.214-.6.441l-.149.117q-.286.225-.563.462l-.141.123q-.279.244-.547.5l-.121.115q-.283.274-.553.562l-.078.082a17.424,17.424,0,0,0-4.266,8.125l-.007.031c-.086.4-.161.8-.22,1.2,0,.017,0,.034-.007.05-.05.353-.088.71-.117,1.07-.007.088-.014.177-.02.265-.025.382-.042.767-.042,1.155h0L71.618,95.8l-1.039,4.325-7.712-2.543h0l-.092-.03-1.234-.407a.773.773,0,0,0-.874.272.765.765,0,0,0-.05.091.741.741,0,0,0,.024.823l.108.16h0l3.311,4.927,1.2,1.781h0l.145.215.227.338-.371.4a.683.683,0,0,0-.262.28l-2.745,2.928v28.7a2.2,2.2,0,0,0,.916,1.783,2.24,2.24,0,0,0,.228.14,2.181,2.181,0,0,0,.663.243,2.226,2.226,0,0,0,.4.04h66.6a2.226,2.226,0,0,0,.4-.04,2.181,2.181,0,0,0,.663-.243,2.145,2.145,0,0,0,1.145-1.923v-28.7l-4.131-4.407a6.315,6.315,0,0,0,7.672-3.036l.526-1.01A2.219,2.219,0,0,0,136.39,97.917Zm-.369,2.307-.526,1.01a4.84,4.84,0,0,1-5.633,2.408c.062-.052.125-.1.187-.155q.483-.41.955-.852c.472-.44.933-.9,1.378-1.374a29.863,29.863,0,0,0,2.2-2.622l1.126.587A.74.74,0,0,1,136.021,100.224Z" transform="translate(-23.257 -26.764)" fill="#33312c"/>
    <g id="Group_5975" data-name="Group 5975" transform="translate(37.247 37.705)">
      <path id="Path_7564" data-name="Path 7564" d="M134.681,126.108H63.667l11.039-11.775h48.937Z" transform="translate(-61.921 -85.081)" fill="#e55658"/>
      <g id="Group_5950" data-name="Group 5950" transform="translate(1.746)">
        <path id="Path_7565" data-name="Path 7565" d="M134.681,78.811H63.667A17.478,17.478,0,0,1,81.145,61.333H117.2a17.478,17.478,0,0,1,17.477,17.478Z" transform="translate(-63.667 -61.333)" fill="#e55658"/>
        <path id="Path_7566" data-name="Path 7566" d="M63.667,88.986h71.015a17.465,17.465,0,0,0-.714-4.944H64.381A17.464,17.464,0,0,0,63.667,88.986Z" transform="translate(-63.667 -71.508)" fill="#fff335"/>
        <path id="Path_7567" data-name="Path 7567" d="M109.625,88.986h20.283c0-1.718-.072-3.376-.2-4.944H109.829C109.7,85.61,109.625,87.268,109.625,88.986Z" transform="translate(-84.259 -71.508)" fill="#fdd343"/>
        <path id="Path_7568" data-name="Path 7568" d="M63.815,89a17.441,17.441,0,0,0-.148,2.208h71.015A17.442,17.442,0,0,0,134.533,89Z" transform="translate(-63.667 -73.73)" fill="#e7ad27"/>
        <path id="Path_7569" data-name="Path 7569" d="M63.667,93h71.014l-11.039,11.774H74.706Z" transform="translate(-63.667 -75.522)" fill="#d14547"/>
        <path id="Path_7570" data-name="Path 7570" d="M71.063,67.589h62.851a17.439,17.439,0,0,0-13.4-6.255H84.458A17.434,17.434,0,0,0,71.063,67.589Z" transform="translate(-66.981 -61.333)" fill="#d14547"/>
        <path id="Path_7571" data-name="Path 7571" d="M123.088,84.042a5.844,5.844,0,0,0-5.844,5.844v4.5a5.844,5.844,0,1,0,11.689,0v-4.5A5.844,5.844,0,0,0,123.088,84.042Zm2.093,12.349a2.093,2.093,0,0,1-2.093,2.093h0A2.093,2.093,0,0,1,121,96.391V92.206a2.093,2.093,0,0,1,2.093-2.093h0a2.093,2.093,0,0,1,2.093,2.093Z" transform="translate(-87.673 -71.508)" fill="#e7ad27"/>
        <path id="Path_7572" data-name="Path 7572" d="M123.088,82.417a5.844,5.844,0,0,0-5.844,5.844v4.5a5.844,5.844,0,0,0,11.689,0v-4.5A5.844,5.844,0,0,0,123.088,82.417Zm2.093,12.349a2.093,2.093,0,0,1-2.093,2.093h0A2.093,2.093,0,0,1,121,94.766V90.581a2.093,2.093,0,0,1,2.093-2.093h0a2.093,2.093,0,0,1,2.093,2.093Z" transform="translate(-87.673 -70.78)" fill="#fede3a"/>
        <path id="Path_7573" data-name="Path 7573" d="M128.119,86.685a1.518,1.518,0,1,1-1.518-1.518A1.518,1.518,0,0,1,128.119,86.685Z" transform="translate(-91.186 -72.012)" fill="#e7ad27"/>
      </g>
      <rect id="Rectangle_1938" data-name="Rectangle 1938" width="48.753" height="11.774" transform="translate(12.785 29.252)" fill="#e55658"/>
      <path id="Path_7574" data-name="Path 7574" d="M133.574,128.035a4.078,4.078,0,0,0-2.809-3.119,6.4,6.4,0,0,0-10.782-3.644,14.969,14.969,0,0,0-13.959-1.491,4.065,4.065,0,0,0-5.6-.054,14.995,14.995,0,0,0-13.835,1.545,6.405,6.405,0,0,0-10.776,3.6,4.078,4.078,0,0,0-2.969,3.16Z" transform="translate(-66.032 -87.008)" fill="#e7ad27"/>
      <g id="Group_5951" data-name="Group 5951" transform="translate(43.662 36.503)">
        <path id="Path_7575" data-name="Path 7575" d="M139.7,130.22c-.431,1.074.806,2.581,2.763,3.366s3.892.551,4.323-.523l.706-1.761c.431-1.074-.806-2.581-2.763-3.366s-3.892-.551-4.323.523Z" transform="translate(-139.611 -127.47)" fill="#e7ad27"/>
        <path id="Path_7576" data-name="Path 7576" d="M148.063,131.3c-.431,1.074-2.367,1.309-4.323.523s-3.194-2.292-2.763-3.366,2.366-1.308,4.323-.523S148.493,130.226,148.063,131.3Z" transform="translate(-140.184 -127.47)" fill="#fede3a"/>
        <path id="Path_7577" data-name="Path 7577" d="M148.012,131.365c-.294.732-1.767.831-3.291.219s-2.521-1.7-2.227-2.433,1.767-.831,3.291-.219S148.306,130.633,148.012,131.365Z" transform="translate(-140.88 -127.945)" fill="#f7cb15"/>
      </g>
      <g id="Group_5954" data-name="Group 5954" transform="translate(0 20.898)">
        <rect id="Rectangle_1939" data-name="Rectangle 1939" width="24.231" height="2.984" transform="translate(5.632 18.083) rotate(-16.164)" fill="#fede3a"/>
        <rect id="Rectangle_1940" data-name="Rectangle 1940" width="17.62" height="2.984" transform="translate(8.806 17.162) rotate(-16.164)" fill="#fff335"/>
        <path id="Path_7578" data-name="Path 7578" d="M93.318,118.451l-23.924,6.935a.7.7,0,0,1-.863-.475h0a.7.7,0,0,1,.475-.863l23.924-6.935a.7.7,0,0,1,.863.475h0A.7.7,0,0,1,93.318,118.451Z" transform="translate(-64.088 -107.212)" fill="#fede3a"/>
        <path id="Path_7579" data-name="Path 7579" d="M92.664,120.275,75.686,125.2a.7.7,0,0,1-.863-.475h0a.7.7,0,0,1,.475-.863l16.978-4.922a.7.7,0,0,1,.863.475h0A.7.7,0,0,1,92.664,120.275Z" transform="translate(-66.907 -108.03)" fill="#fff335"/>
        <path id="Path_7580" data-name="Path 7580" d="M93.127,117.942,69.2,124.877a.687.687,0,0,1-.664-.171.676.676,0,0,0-.006.365h0a.7.7,0,0,0,.863.475l23.924-6.935a.7.7,0,0,0,.475-.863h0a.672.672,0,0,0-.2-.305A.685.685,0,0,1,93.127,117.942Z" transform="translate(-64.091 -107.373)" fill="#fede3a"/>
        <path id="Path_7581" data-name="Path 7581" d="M95.526,126.07,71.6,133a.7.7,0,0,1-.863-.475h0a.7.7,0,0,1,.475-.863l23.924-6.935a.7.7,0,0,1,.863.475h0A.7.7,0,0,1,95.526,126.07Z" transform="translate(-65.077 -110.626)" fill="#f7cb15"/>
        <path id="Path_7582" data-name="Path 7582" d="M94.952,127.845l-17.177,4.979a.594.594,0,0,1-.735-.4l-.057-.2a.594.594,0,0,1,.4-.735l17.177-4.979a.594.594,0,0,1,.735.4l.057.2A.593.593,0,0,1,94.952,127.845Z" transform="translate(-67.876 -111.423)" fill="#fede3a"/>
        <path id="Path_7583" data-name="Path 7583" d="M95.336,125.56,71.412,132.5a.687.687,0,0,1-.664-.171.674.674,0,0,0-.006.364.7.7,0,0,0,.863.475l23.924-6.935a.7.7,0,0,0,.475-.863.676.676,0,0,0-.2-.305A.685.685,0,0,1,95.336,125.56Z" transform="translate(-65.081 -110.786)" fill="#f7cb15"/>
        <g id="Group_5952" data-name="Group 5952">
          <path id="Path_7584" data-name="Path 7584" d="M60.641,114.694l5.128,7.63,11.98-3.473L61.54,113.507A.787.787,0,0,0,60.641,114.694Z" transform="translate(-60.503 -105.59)" fill="#fede3a"/>
          <path id="Path_7585" data-name="Path 7585" d="M62.866,113.945l-1.326-.437a.787.787,0,0,0-.9,1.187l5.128,7.63,2.268-.657-5.128-7.63A.857.857,0,0,1,62.866,113.945Z" transform="translate(-60.503 -105.591)" fill="#f7cb15"/>
          <path id="Path_7586" data-name="Path 7586" d="M60.748,114.855a.78.78,0,0,1,1.011-.591l14.885,4.908,1.1-.32L61.54,113.508a.787.787,0,0,0-.9,1.187Z" transform="translate(-60.503 -105.591)" fill="#fff335"/>
          <path id="Path_7587" data-name="Path 7587" d="M102.657,100.008l-.252,9.19-11.98,3.473,10.837-13.184A.787.787,0,0,1,102.657,100.008Z" transform="translate(-73.91 -99.198)" fill="#fede3a"/>
          <path id="Path_7588" data-name="Path 7588" d="M109.146,99.486l-.886,1.078a.745.745,0,0,1,.013.1l-.252,9.19,2.268-.657.252-9.19A.787.787,0,0,0,109.146,99.486Z" transform="translate(-81.795 -99.197)" fill="#f7cb15"/>
          <path id="Path_7589" data-name="Path 7589" d="M101.482,100.243a.78.78,0,0,1,1.171-.041l.006-.193a.787.787,0,0,0-1.395-.522L90.426,112.67l1.1-.32Z" transform="translate(-73.911 -99.197)" fill="#fff335"/>
        </g>
        <path id="Path_7590" data-name="Path 7590" d="M80.263,100.077l-3.584,14.916,15.9-4.61L81.577,99.7A.787.787,0,0,0,80.263,100.077Z" transform="translate(-67.751 -99.321)" fill="#f7cb15"/>
        <path id="Path_7591" data-name="Path 7591" d="M80.7,101.589a.787.787,0,0,1,1.314-.381l9.706,9.425.862-.249L81.577,99.7a.787.787,0,0,0-1.314.381l-3.584,14.916.862-.249Z" transform="translate(-67.751 -99.321)" fill="#fff335"/>
        <rect id="Rectangle_1941" data-name="Rectangle 1941" width="4.049" height="4.049" transform="matrix(0.482, -0.876, 0.876, 0.482, 12.838, 9.71)" fill="#fede3a"/>
        <path id="Path_7592" data-name="Path 7592" d="M87.3,110.359l.8,2.75,2.75-.8Z" transform="translate(-72.511 -104.199)" fill="#fff"/>
        <path id="Path_7593" data-name="Path 7593" d="M91.5,113.9l-2.75.8.8,2.75Z" transform="translate(-73.158 -105.784)" fill="#fff335"/>
        <path id="Path_7594" data-name="Path 7594" d="M85.716,110.359l.8,2.75-2.75.8Z" transform="translate(-70.925 -104.199)" fill="#fede3a"/>
        <path id="Path_7595" data-name="Path 7595" d="M83.763,116.138l2.75-.8.8,2.75Z" transform="translate(-70.925 -106.431)" fill="#e7ad27"/>
        <path id="Path_7596" data-name="Path 7596" d="M69,125.226l.062.215.512.763,11.98-3.473-1.846-.609Z" transform="translate(-64.311 -109.469)" fill="#f7cb15"/>
        <path id="Path_7597" data-name="Path 7597" d="M91.659,118.351l-1.234,1.5,11.98-3.473.031-1.153Z" transform="translate(-73.91 -106.38)" fill="#f7cb15"/>
        <path id="Path_7598" data-name="Path 7598" d="M76.974,121.906l-.3,1.229,15.9-4.61-.907-.881Z" transform="translate(-67.751 -107.463)" fill="#e7ad27"/>
        <g id="Group_5953" data-name="Group 5953" transform="translate(8.496 12.961)">
          <path id="Path_7599" data-name="Path 7599" d="M77.319,132.092a.726.726,0,1,1-.9-.5A.726.726,0,0,1,77.319,132.092Z" transform="translate(-75.896 -126.662)" fill="#f7cb15"/>
          <path id="Path_7600" data-name="Path 7600" d="M84.985,129.87a.726.726,0,1,1-.9-.5A.726.726,0,0,1,84.985,129.87Z" transform="translate(-79.331 -125.667)" fill="#f7cb15"/>
          <path id="Path_7601" data-name="Path 7601" d="M92.65,127.648a.726.726,0,1,1-.9-.5A.726.726,0,0,1,92.65,127.648Z" transform="translate(-82.765 -124.671)" fill="#f7cb15"/>
          <path id="Path_7602" data-name="Path 7602" d="M100.316,125.426a.726.726,0,1,1-.9-.5A.726.726,0,0,1,100.316,125.426Z" transform="translate(-86.2 -123.675)" fill="#f7cb15"/>
          <path id="Path_7603" data-name="Path 7603" d="M107.981,123.2a.726.726,0,1,1-.9-.5A.726.726,0,0,1,107.981,123.2Z" transform="translate(-89.634 -122.68)" fill="#f7cb15"/>
        </g>
      </g>
      <g id="Group_5957" data-name="Group 5957" transform="translate(52.487 21.018)">
        <path id="Path_7604" data-name="Path 7604" d="M167.222,139.592l-9.408-4.9a1.235,1.235,0,0,0-1.666.525l-.539,1.034,11.6,6.041.539-1.034A1.235,1.235,0,0,0,167.222,139.592Z" transform="translate(-155.604 -115.158)" fill="#f7cb15"/>
        <path id="Path_7605" data-name="Path 7605" d="M167.052,139.437l-5.769-3.005a1,1,0,0,0-1.342.423l-.65,1.247,7.535,3.925.65-1.247A1,1,0,0,0,167.052,139.437Z" transform="translate(-157.254 -115.95)" fill="#fff335"/>
        <path id="Path_7606" data-name="Path 7606" d="M172.346,120.033l-.8-.417-.8-.417a36.937,36.937,0,0,1-7.365,9.7L166,130.263l2.621,1.365A36.905,36.905,0,0,1,172.346,120.033Z" transform="translate(-159.085 -108.278)" fill="#fede3a"/>
        <rect id="Rectangle_1942" data-name="Rectangle 1942" width="0.746" height="13.077" transform="matrix(0.462, -0.887, 0.887, 0.462, 0, 21.09)" fill="#e7ad27"/>
        <path id="Path_7607" data-name="Path 7607" d="M171.454,127.958a36.016,36.016,0,0,1,2.991-7.924l-.8-.417-.8-.417a35.993,35.993,0,0,1-4.779,6.993,2.8,2.8,0,0,0,3.391,1.766Z" transform="translate(-161.185 -108.279)" fill="#f7cb15"/>
        <g id="Group_5955" data-name="Group 5955" transform="translate(15.303 6.676)">
          <path id="Path_7608" data-name="Path 7608" d="M183.327,120.081l.683-1.31a4.839,4.839,0,0,0,6.519-2.054l.526-1.01a.739.739,0,0,0-.314-1l-3.631-1.891.683-1.31,3.631,1.891a2.219,2.219,0,0,1,.942,2.99l-.526,1.01A6.318,6.318,0,0,1,183.327,120.081Z" transform="translate(-183.327 -111.509)" fill="#fede3a"/>
        </g>
        <path id="Path_7609" data-name="Path 7609" d="M184.287,119.3l-.341.655a5.572,5.572,0,0,0,7.516-2.367l.526-1.01a1.478,1.478,0,0,0-.628-1.993l-3.631-1.891-.341.655,3.631,1.891a.739.739,0,0,1,.314,1l-.526,1.01A4.84,4.84,0,0,1,184.287,119.3Z" transform="translate(-168.301 -105.365)" fill="#e7ad27"/>
        <g id="Group_5956" data-name="Group 5956" transform="translate(4.23 0.534)">
          <path id="Path_7610" data-name="Path 7610" d="M166.658,111.1a6.317,6.317,0,0,1-2.681-8.512l.526-1.01a2.218,2.218,0,0,1,2.989-.942l3.631,1.891-.683,1.31-3.631-1.891a.74.74,0,0,0-1,.314l-.526,1.01a4.839,4.839,0,0,0,2.054,6.519Z" transform="translate(-163.264 -100.381)" fill="#fede3a"/>
        </g>
        <path id="Path_7611" data-name="Path 7611" d="M167.408,102.541l3.631,1.891.341-.655-3.631-1.891a1.478,1.478,0,0,0-1.993.628l-.526,1.01a5.572,5.572,0,0,0,2.368,7.516l.341-.655a4.839,4.839,0,0,1-2.054-6.519l.526-1.01A.74.74,0,0,1,167.408,102.541Z" transform="translate(-159.632 -100.446)" fill="#e7ad27"/>
        <path id="Path_7612" data-name="Path 7612" d="M184.442,105.869a.493.493,0,0,1,.2.679c-2.721,4.8-9.956,11.663-13.484,9.826s-2.053-11.7.323-16.681a.493.493,0,0,1,.673-.224Z" transform="translate(-161.631 -99.414)" fill="#f7cb15"/>
        <path id="Path_7613" data-name="Path 7613" d="M183.167,105.671c.155.081.173.35.039.594-2.657,4.837-8.816,12.258-11.026,11.106s.341-10.451,2.782-15.4c.123-.25.354-.389.509-.309Z" transform="translate(-162.651 -100.41)" fill="#fede3a"/>
        <path id="Path_7614" data-name="Path 7614" d="M184.662,106.113c-3.234,4.54-9.246,9.71-12.364,8.086s-2.327-9.515-.461-14.766a.489.489,0,0,0-.354.269c-2.376,4.983-3.851,14.844-.323,16.681s10.763-5.023,13.484-9.826A.487.487,0,0,0,184.662,106.113Z" transform="translate(-161.63 -99.422)" fill="#e7ad27"/>
      </g>
      <g id="Group_5958" data-name="Group 5958" transform="translate(52.17 36.686)">
        <path id="Path_7615" data-name="Path 7615" d="M155.159,130.307c-.526,1.031.57,2.643,2.448,3.6s3.827.9,4.353-.131l.862-1.69c.526-1.031-.57-2.643-2.448-3.6s-3.827-.9-4.352.132Z" transform="translate(-155.027 -127.803)" fill="#e7ad27"/>
        <path id="Path_7616" data-name="Path 7616" d="M163.523,132.086c-.526,1.031-2.475,1.09-4.353.131s-2.974-2.57-2.448-3.6,2.475-1.09,4.353-.131S164.048,131.055,163.523,132.086Z" transform="translate(-155.728 -127.802)" fill="#fede3a"/>
        <path id="Path_7617" data-name="Path 7617" d="M163.509,132.1c-.359.7-1.835.668-3.3-.078s-2.357-1.921-2-2.623,1.835-.668,3.3.078S163.867,131.4,163.509,132.1Z" transform="translate(-156.42 -128.291)" fill="#f7cb15"/>
      </g>
      <path id="Path_7618" data-name="Path 7618" d="M132.474,166.575h-66.6a2.208,2.208,0,0,1-2.208-2.208v-28.7h71.015v28.7A2.209,2.209,0,0,1,132.474,166.575Z" transform="translate(-61.921 -94.64)" fill="#d14547"/>
      <path id="Path_7619" data-name="Path 7619" d="M132.474,184.875h-66.6a2.208,2.208,0,0,1-2.208-2.208v2.76a2.208,2.208,0,0,0,2.208,2.208h66.6a2.208,2.208,0,0,0,2.208-2.208v-2.76A2.209,2.209,0,0,1,132.474,184.875Z" transform="translate(-61.921 -115.699)" fill="#b22b2c"/>
      <rect id="Rectangle_1943" data-name="Rectangle 1943" width="71.015" height="5.519" transform="translate(1.746 41.027)" fill="#fff335"/>
      <rect id="Rectangle_1944" data-name="Rectangle 1944" width="20.283" height="5.519" transform="translate(27.112 41.027)" fill="#fdd343"/>
      <rect id="Rectangle_1945" data-name="Rectangle 1945" width="71.015" height="7.175" transform="translate(1.746 46.546)" fill="#e55658"/>
      <rect id="Rectangle_1946" data-name="Rectangle 1946" width="71.015" height="7.175" transform="translate(1.746 59.241)" fill="#e55658"/>
      <path id="Path_7620" data-name="Path 7620" d="M63.667,168.667h0v10.487a2.208,2.208,0,0,0,2.208,2.208H76.361A12.694,12.694,0,0,0,63.667,168.667Z" transform="translate(-61.921 -109.426)" fill="#fede3a"/>
      <path id="Path_7621" data-name="Path 7621" d="M65.875,184.875a2.208,2.208,0,0,1-2.208-2.208v2.76a2.208,2.208,0,0,0,2.208,2.208H76.361a12.7,12.7,0,0,0-.3-2.76Z" transform="translate(-61.921 -115.699)" fill="#e7ad27"/>
      <path id="Path_7622" data-name="Path 7622" d="M182.027,168.667h0v10.487a2.208,2.208,0,0,1-2.208,2.208H169.333A12.694,12.694,0,0,1,182.027,168.667Z" transform="translate(-109.267 -109.426)" fill="#fede3a"/>
      <g id="Group_5959" data-name="Group 5959" transform="translate(3.987 64.399)">
        <path id="Path_7623" data-name="Path 7623" d="M70.763,179.531a1.518,1.518,0,1,1-1.518-1.518A1.518,1.518,0,0,1,70.763,179.531Z" transform="translate(-67.727 -178.013)" fill="#e7ad27"/>
        <path id="Path_7624" data-name="Path 7624" d="M185.809,179.531a1.518,1.518,0,1,1-1.518-1.518A1.518,1.518,0,0,1,185.809,179.531Z" transform="translate(-119.276 -178.013)" fill="#e7ad27"/>
      </g>
      <path id="Path_7625" data-name="Path 7625" d="M179.82,184.875H169.637a12.731,12.731,0,0,0-.3,2.76H179.82a2.208,2.208,0,0,0,2.208-2.208v-2.76A2.208,2.208,0,0,1,179.82,184.875Z" transform="translate(-109.267 -115.699)" fill="#e7ad27"/>
      <path id="Path_7626" data-name="Path 7626" d="M123.088,150.361h0a5.844,5.844,0,0,1-5.844-5.844v-6.85h11.689v6.85A5.844,5.844,0,0,1,123.088,150.361Z" transform="translate(-85.927 -95.536)" fill="#e7ad27"/>
      <path id="Path_7627" data-name="Path 7627" d="M123.088,148.361h0a5.844,5.844,0,0,1-5.844-5.844v-6.85h11.689v6.85A5.844,5.844,0,0,1,123.088,148.361Z" transform="translate(-85.927 -94.64)" fill="#fede3a"/>
      <path id="Path_7628" data-name="Path 7628" d="M127.68,157.536h-.736v-1.818a5.836,5.836,0,0,1-2.208,1.311v.507h-3.673V157a5.836,5.836,0,0,1-2.208-1.354v1.89h-.841a1.1,1.1,0,0,0-1.1,1.1v7.136a1.093,1.093,0,0,0,.023.222,1.105,1.105,0,0,0,.859.859,1.093,1.093,0,0,0,.222.023h9.665a1.093,1.093,0,0,0,.222-.023,1.1,1.1,0,0,0,.881-1.082V158.64A1.1,1.1,0,0,0,127.68,157.536Z" transform="translate(-85.778 -103.592)" fill="#d14547"/>
      <path id="Path_7629" data-name="Path 7629" d="M126.315,152.894a5.829,5.829,0,0,0,2.208-1.311v-1.122a4.044,4.044,0,1,0-8.088,0v1.05a5.836,5.836,0,0,0,2.208,1.354v-2.4a1.836,1.836,0,0,1,3.673,0v2.433Z" transform="translate(-87.357 -99.457)" fill="#e7ad27"/>
      <g id="Group_5966" data-name="Group 5966" transform="translate(31.133 45.856)">
        <g id="Group_5963" data-name="Group 5963" transform="translate(1.945)">
          <g id="Group_5960" data-name="Group 5960">
            <path id="Path_7630" data-name="Path 7630" d="M128.523,151.4h-2.208v-2.94a1.836,1.836,0,1,0-3.673,0v2.94h-2.208v-2.94a4.044,4.044,0,1,1,8.088,0Z" transform="translate(-120.435 -144.416)" fill="#fff"/>
          </g>
          <path id="Path_7631" data-name="Path 7631" d="M125.375,146.417a2.94,2.94,0,0,0-2.94,2.94v2.94h1.1v-2.94a1.836,1.836,0,0,1,3.673,0v2.94h1.1v-2.94A2.94,2.94,0,0,0,125.375,146.417Z" transform="translate(-121.331 -145.313)" fill="#e6e7e8"/>
          <g id="Group_5961" data-name="Group 5961" transform="translate(5.88 6.049)">
            <rect id="Rectangle_1947" data-name="Rectangle 1947" width="2.208" height="0.936" fill="#d1d3d4"/>
          </g>
          <g id="Group_5962" data-name="Group 5962" transform="translate(0 6.049)">
            <rect id="Rectangle_1948" data-name="Rectangle 1948" width="2.208" height="0.936" fill="#d1d3d4"/>
          </g>
        </g>
        <g id="Group_5965" data-name="Group 5965" transform="translate(0 6.984)">
          <path id="Path_7632" data-name="Path 7632" d="M127.68,166.414h-9.665a1.1,1.1,0,0,1-1.1-1.1v-7.136a1.1,1.1,0,0,1,1.1-1.1h9.665a1.1,1.1,0,0,1,1.1,1.1v7.136A1.1,1.1,0,0,1,127.68,166.414Z" transform="translate(-116.911 -157.07)" fill="#d1d3d4"/>
          <path id="Path_7633" data-name="Path 7633" d="M127.506,166.414h-6.028a.9.9,0,0,1-.9-.9v-7.553a.9.9,0,0,1,.9-.9h6.028a.9.9,0,0,1,.9.9v7.553A.9.9,0,0,1,127.506,166.414Z" transform="translate(-118.556 -157.07)" fill="#fff"/>
          <g id="Group_5964" data-name="Group 5964" transform="translate(4.715 1.979)">
            <path id="Path_7634" data-name="Path 7634" d="M128,161.93a1.274,1.274,0,1,1-1.274-1.274A1.274,1.274,0,0,1,128,161.93Z" transform="translate(-125.454 -160.656)" fill="#bcbec0"/>
            <path id="Path_7635" data-name="Path 7635" d="M127.214,166.588h0a.674.674,0,0,1-.674-.674v-1.8h1.349v1.8A.674.674,0,0,1,127.214,166.588Z" transform="translate(-125.941 -162.207)" fill="#bcbec0"/>
          </g>
          <path id="Path_7636" data-name="Path 7636" d="M127.68,171.1h-9.665a1.1,1.1,0,0,1-1.1-1.1v1.1a1.1,1.1,0,0,0,1.1,1.1h9.665a1.1,1.1,0,0,0,1.1-1.1V170A1.1,1.1,0,0,1,127.68,171.1Z" transform="translate(-116.911 -162.864)" fill="#bcbec0"/>
        </g>
      </g>
      <path id="Path_7637" data-name="Path 7637" d="M126.862,147.816h0a1.2,1.2,0,0,1-1.2-1.2v-4.508a1.2,1.2,0,0,1,1.2-1.2h0a1.2,1.2,0,0,1,1.2,1.2v4.508A1.2,1.2,0,0,1,126.862,147.816Z" transform="translate(-89.701 -96.992)" fill="#fede3a"/>
      <path id="Path_7638" data-name="Path 7638" d="M126.862,140.917a1.2,1.2,0,0,0-1.2,1.2v1.549a1.2,1.2,0,1,1,2.392,0v-1.549A1.2,1.2,0,0,0,126.862,140.917Z" transform="translate(-89.701 -96.992)" fill="#fff335"/>
      <path id="Path_7639" data-name="Path 7639" d="M126.862,149.7a1.2,1.2,0,0,1-1.2-1.2v1.518a1.2,1.2,0,1,0,2.392,0V148.5A1.2,1.2,0,0,1,126.862,149.7Z" transform="translate(-89.701 -100.39)" fill="#f7cb15"/>
      <rect id="Rectangle_1949" data-name="Rectangle 1949" width="11.689" height="1.564" transform="translate(31.317 41.027)" fill="#f7cb15"/>
      <g id="Group_5967" data-name="Group 5967" transform="translate(29.337 33.527)">
        <path id="Path_7640" data-name="Path 7640" d="M113.658,126.071c0,1.157,1.709,2.1,3.818,2.1s3.818-.938,3.818-2.1v-1.9c0-1.157-1.709-2.1-3.818-2.1s-3.818.938-3.818,2.1Z" transform="translate(-113.657 -122.078)" fill="#e7ad27"/>
        <path id="Path_7641" data-name="Path 7641" d="M121.292,124.173c0,1.157-1.709,2.1-3.818,2.1s-3.818-.938-3.818-2.1,1.709-2.1,3.818-2.1S121.292,123.016,121.292,124.173Z" transform="translate(-113.657 -122.078)" fill="#fede3a"/>
        <path id="Path_7642" data-name="Path 7642" d="M121.134,124.527c0,.789-1.331,1.429-2.972,1.429s-2.972-.64-2.972-1.429,1.331-1.429,2.972-1.429S121.134,123.738,121.134,124.527Z" transform="translate(-114.344 -122.535)" fill="#f7cb15"/>
      </g>
      <g id="Group_5968" data-name="Group 5968" transform="translate(25.942 29.637)">
        <path id="Path_7643" data-name="Path 7643" d="M107.506,119.023c0,1.157,1.709,2.1,3.818,2.1s3.818-.938,3.818-2.1v-1.9c0-1.157-1.709-2.1-3.818-2.1s-3.818.938-3.818,2.1Z" transform="translate(-107.505 -115.03)" fill="#e7ad27"/>
        <path id="Path_7644" data-name="Path 7644" d="M115.14,117.126c0,1.157-1.709,2.1-3.818,2.1s-3.818-.938-3.818-2.1,1.709-2.1,3.818-2.1S115.14,115.969,115.14,117.126Z" transform="translate(-107.505 -115.03)" fill="#fede3a"/>
        <path id="Path_7645" data-name="Path 7645" d="M114.982,117.479c0,.789-1.331,1.429-2.972,1.429s-2.972-.64-2.972-1.429,1.331-1.429,2.972-1.429S114.982,116.69,114.982,117.479Z" transform="translate(-108.192 -115.487)" fill="#f7cb15"/>
      </g>
      <g id="Group_5969" data-name="Group 5969" transform="translate(41.601 29.126)">
        <path id="Path_7646" data-name="Path 7646" d="M135.878,118.1c0,1.157,1.709,2.1,3.818,2.1s3.818-.938,3.818-2.1v-1.9c0-1.157-1.709-2.1-3.818-2.1s-3.818.938-3.818,2.1v1.9Z" transform="translate(-135.877 -114.105)" fill="#e7ad27"/>
        <path id="Path_7647" data-name="Path 7647" d="M143.512,116.2c0,1.157-1.709,2.1-3.818,2.1s-3.818-.938-3.818-2.1,1.709-2.1,3.818-2.1S143.512,115.044,143.512,116.2Z" transform="translate(-135.877 -114.105)" fill="#fede3a"/>
        <path id="Path_7648" data-name="Path 7648" d="M143.354,116.554c0,.789-1.331,1.428-2.972,1.428s-2.972-.64-2.972-1.428,1.331-1.429,2.972-1.429S143.354,115.765,143.354,116.554Z" transform="translate(-136.564 -114.562)" fill="#f7cb15"/>
      </g>
      <g id="Group_5970" data-name="Group 5970" transform="translate(46.939 29.897)">
        <path id="Path_7649" data-name="Path 7649" d="M147.633,122.877c.439,1.071,2.376,1.291,4.327.492s3.177-2.315,2.739-3.386l-.719-1.756c-.439-1.071-2.376-1.292-4.327-.492s-3.177,2.315-2.739,3.386Z" transform="translate(-146.12 -116.287)" fill="#e7ad27"/>
        <ellipse id="Ellipse_1016" data-name="Ellipse 1016" cx="3.818" cy="2.095" rx="3.818" ry="2.095" transform="matrix(0.925, -0.379, 0.379, 0.925, 0, 2.894)" fill="#fede3a"/>
        <path id="Path_7650" data-name="Path 7650" d="M153.79,118.928c.3.73-.69,1.826-2.209,2.449s-2.993.534-3.292-.2.69-1.826,2.209-2.448S153.491,118.2,153.79,118.928Z" transform="translate(-146.753 -116.763)" fill="#f7cb15"/>
      </g>
      <g id="Group_5971" data-name="Group 5971" transform="translate(22.163 33.353)">
        <path id="Path_7651" data-name="Path 7651" d="M101.3,127.059c.357,1.1,2.271,1.467,4.277.818s3.343-2.068,2.987-3.169l-.584-1.805c-.357-1.1-2.271-1.467-4.277-.818s-3.343,2.068-2.986,3.169Z" transform="translate(-100.659 -121.763)" fill="#e7ad27"/>
        <path id="Path_7652" data-name="Path 7652" d="M107.981,122.9c.357,1.1-.981,2.52-2.987,3.169s-3.921.283-4.277-.818.981-2.52,2.987-3.169S107.624,121.8,107.981,122.9Z" transform="translate(-100.659 -121.764)" fill="#fede3a"/>
        <path id="Path_7653" data-name="Path 7653" d="M107.79,123.534c.243.751-.826,1.769-2.388,2.274s-3.025.307-3.268-.444.826-1.769,2.388-2.274S107.547,122.783,107.79,123.534Z" transform="translate(-101.304 -122.232)" fill="#f7cb15"/>
      </g>
      <g id="Group_5972" data-name="Group 5972" transform="translate(52.152 27.486)">
        <path id="Path_7654" data-name="Path 7654" d="M155.079,115.616c-.431,1.074.806,2.581,2.763,3.366s3.892.551,4.323-.523l.706-1.761c.431-1.074-.806-2.581-2.763-3.366s-3.892-.55-4.323.523Z" transform="translate(-154.994 -111.911)" fill="#e7ad27"/>
        <ellipse id="Ellipse_1017" data-name="Ellipse 1017" cx="2.095" cy="3.818" rx="2.095" ry="3.818" transform="translate(0.011 3.889) rotate(-68.142)" fill="#fede3a"/>
        <path id="Path_7655" data-name="Path 7655" d="M163.395,116.762c-.294.732-1.767.831-3.291.219s-2.521-1.7-2.227-2.433,1.767-.831,3.291-.219S163.689,116.03,163.395,116.762Z" transform="translate(-156.263 -112.386)" fill="#f7cb15"/>
      </g>
      <g id="Group_5973" data-name="Group 5973" transform="translate(37.654 33.686)">
        <path id="Path_7656" data-name="Path 7656" d="M128.747,125.705c-.213,1.138,1.294,2.374,3.366,2.762s3.925-.219,4.138-1.357l.349-1.865c.213-1.138-1.294-2.374-3.366-2.762s-3.925.219-4.138,1.357Z" transform="translate(-128.727 -122.367)" fill="#e7ad27"/>
        <path id="Path_7657" data-name="Path 7657" d="M136.885,125.246c-.213,1.138-2.066,1.745-4.138,1.357s-3.579-1.625-3.366-2.762,2.066-1.745,4.138-1.357S137.1,124.109,136.885,125.246Z" transform="translate(-129.011 -122.367)" fill="#fede3a"/>
        <path id="Path_7658" data-name="Path 7658" d="M136.769,125.45c-.145.775-1.571,1.159-3.185.857s-2.8-1.176-2.659-1.952,1.571-1.159,3.185-.857S136.914,124.674,136.769,125.45Z" transform="translate(-129.706 -122.828)" fill="#f7cb15"/>
      </g>
      <g id="Group_5974" data-name="Group 5974" transform="translate(33.708 29.949)">
        <path id="Path_7659" data-name="Path 7659" d="M121.6,118.933c-.213,1.138,1.294,2.374,3.366,2.762s3.925-.219,4.138-1.357l.349-1.865c.213-1.138-1.294-2.374-3.366-2.762s-3.925.219-4.138,1.357Z" transform="translate(-121.576 -115.595)" fill="#e7ad27"/>
        <path id="Path_7660" data-name="Path 7660" d="M129.733,118.474c-.213,1.138-2.066,1.745-4.138,1.357s-3.579-1.625-3.366-2.762,2.066-1.745,4.138-1.357S129.946,117.337,129.733,118.474Z" transform="translate(-121.859 -115.595)" fill="#fede3a"/>
        <path id="Path_7661" data-name="Path 7661" d="M129.618,118.678c-.145.775-1.571,1.159-3.185.857s-2.8-1.176-2.659-1.952,1.571-1.159,3.185-.857S129.763,117.9,129.618,118.678Z" transform="translate(-122.555 -116.056)" fill="#f7cb15"/>
      </g>
    </g>
  </g>
</svg>
