<svg xmlns="http://www.w3.org/2000/svg" width="238.8" height="238.8" viewBox="0 0 238.8 238.8">
  <g id="fun-user-experience" transform="translate(-8.6 -8.6)">
    <g id="Group_4222" data-name="Group 4222">
      <g id="Group_4220" data-name="Group 4220">
        <circle id="Ellipse_826" data-name="Ellipse 826" cx="119.4" cy="119.4" r="119.4" transform="translate(8.6 8.6)" fill="#106d74"/>
      </g>
      <g id="Group_4221" data-name="Group 4221">
        <circle id="Ellipse_827" data-name="Ellipse 827" cx="103.299" cy="103.299" r="103.299" transform="translate(24.701 24.701)" fill="#147f87"/>
      </g>
    </g>
    <g id="Group_4223" data-name="Group 4223">
      <path id="Path_5648" data-name="Path 5648" d="M164.274,145.238H140.491c.006-.165.011-.33.011-.5V132.56q.576-.36,1.141-.75l.154-.107a35.3,35.3,0,0,0,3.468-2.77l.167-.152c.118-.108.237-.218.354-.328l.176-.167h1.406a11.287,11.287,0,0,0,10.965-8.614,2,2,0,0,0,.734,1.08l.078.056a1.92,1.92,0,0,0,.34.184c.03.013.06.025.091.036a2.006,2.006,0,0,0,.688.121h6.375a6,6,0,0,0,6-6V99.626a6,6,0,0,0-3.787-5.579V76.162a31.035,31.035,0,0,0-31-31h-19.7a31.035,31.035,0,0,0-31,31V94.047a6,6,0,0,0-3.787,5.579V115.15a6,6,0,0,0,6,6h6.375a2.011,2.011,0,0,0,.688-.121c.031-.011.061-.023.091-.036a2.025,2.025,0,0,0,.34-.184c.027-.018.053-.036.078-.056a2,2,0,0,0,.734-1.08,11.287,11.287,0,0,0,10.965,8.614h1.406l.176.167c.118.11.236.22.354.328l.167.152a35.3,35.3,0,0,0,3.468,2.77l.154.107q.565.39,1.14.75v12.181c0,.166,0,.331.011.5H91.726a18,18,0,0,0-18,18v36.175a7.117,7.117,0,0,0,1.973,4.929,7.219,7.219,0,0,0,.761.691q.2.159.416.3c.142.1.289.188.438.274.1.057.2.112.3.165a7.024,7.024,0,0,0,.961.406c.111.037.222.072.335.1a7.169,7.169,0,0,0,1.956.271h8.917a11.129,11.129,0,0,0,.642,2.935c.031.086.064.171.1.256a11.15,11.15,0,0,0,1.78,3.016c.114.138.231.274.352.406a11.28,11.28,0,0,0,1.806,1.6,11.2,11.2,0,0,0,17.136-5.693l.814-2.523h31.17l.814,2.523a11.194,11.194,0,0,0,18.942,4.091c.12-.133.238-.268.352-.406a11.18,11.18,0,0,0,1.78-3.016c.033-.085.066-.17.1-.256a11.168,11.168,0,0,0,.642-2.935h8.917a7.135,7.135,0,0,0,1.956-.271c.113-.032.225-.067.335-.1a7.024,7.024,0,0,0,.961-.406c.1-.053.2-.108.3-.165q.225-.129.438-.274c.143-.1.282-.2.416-.3a7.221,7.221,0,0,0,.761-.691,7.122,7.122,0,0,0,1.973-4.929V163.238A18,18,0,0,0,164.274,145.238ZM118.149,51.162h19.7a25.028,25.028,0,0,1,25,25v7.663a35.158,35.158,0,0,0-1.084-4.535q-.186-.6-.393-1.19-.414-1.181-.907-2.323c-.055-.127-.11-.253-.167-.379q-.17-.378-.346-.751c-.059-.125-.119-.249-.179-.372q-.363-.741-.759-1.464-.2-.361-.4-.717c-.137-.237-.278-.473-.42-.706-.071-.117-.143-.233-.216-.349a35.444,35.444,0,0,0-3.155-4.281q-.532-.62-1.094-1.215-.842-.891-1.742-1.724c-.2-.185-.4-.367-.607-.548q-1.226-1.082-2.55-2.049c-.331-.242-.666-.477-1.005-.708a35.391,35.391,0,0,0-4.264-2.477q-.927-.455-1.883-.857-.765-.321-1.548-.607c-.13-.048-.261-.1-.392-.141q-.591-.207-1.19-.4a35.371,35.371,0,0,0-3.676-.933q-.263-.051-.526-.1l-.012-.036,0-.009a1.872,1.872,0,0,0-.078-.194s0,0,0,0c-.628-1.332-2.964-2.321-5.751-2.321s-5.123.989-5.751,2.321l0,0c-.01.021-.019.042-.028.063a35.379,35.379,0,0,0-25.534,17.62c-.067.119-.134.239-.2.36Q96.289,74.072,95.7,75.4c-.056.126-.112.253-.166.379-.164.38-.323.764-.474,1.151-.05.129-.1.258-.149.388q-.221.583-.42,1.178c-.044.132-.088.264-.131.4q-.387,1.194-.689,2.423-.151.615-.281,1.237t-.241,1.273V76.16A25.032,25.032,0,0,1,118.149,51.162Zm43.617,42.464c0-.086.006-.172.008-.257,0-.007,0-.015,0-.022.005-.165.008-.33.011-.5v-.034c0-.17,0-.34,0-.509h0c0-.108,0-.217,0-.325,0-.022,0-.044,0-.066,0-.04,0-.08,0-.12s0-.085,0-.128l0-.152,0-.124c0-.013,0-.026,0-.039l-.006-.2,0-.1c0-.039,0-.077,0-.116s0-.081-.005-.121,0-.062,0-.093,0-.069-.005-.1l-.012-.219-.009-.156c-.005-.074-.009-.149-.014-.223,0-.052-.007-.1-.011-.156l-.009-.128.011,0a1.939,1.939,0,0,0,.481-.171c.03-.015.06-.031.089-.048a1.945,1.945,0,0,0,.249-.169c.026-.021.052-.042.077-.064a2.1,2.1,0,0,0,.248-.26v4.593h-1.083ZM93.149,89.034l.037.046.067.075a1.889,1.889,0,0,0,.144.139c.05.044.1.086.157.125a1.862,1.862,0,0,0,.169.108,1.686,1.686,0,0,0,.18.091,1.815,1.815,0,0,0,.19.073c.032.011.065.02.1.029s.074.019.112.026l-.009.128c0,.052-.007.1-.011.156,0,.074-.01.148-.014.223l-.009.156-.012.219c0,.034,0,.068,0,.1s0,.059,0,.089l-.006.125c0,.041,0,.081,0,.122,0,.024,0,.048,0,.071,0,.073,0,.145-.007.218,0,.013,0,.026,0,.038l0,.124c0,.051,0,.1,0,.152s0,.085,0,.128,0,.08,0,.12c0,.022,0,.044,0,.066,0,.108,0,.216,0,.325h0c0,.169,0,.339,0,.509,0,.011,0,.023,0,.034,0,.164.006.329.011.5a.162.162,0,0,0,0,.022c0,.086,0,.171.008.257H93.147V89.034Z" fill="#33312c"/>
    </g>
    <g id="Group_4324" data-name="Group 4324">
      <g id="Group_4265" data-name="Group 4265">
        <g id="Group_4245" data-name="Group 4245">
          <g id="Group_4233" data-name="Group 4233">
            <g id="Group_4224" data-name="Group 4224">
              <path id="Path_5649" data-name="Path 5649" d="M147.367,121.287H108.633A11.284,11.284,0,0,1,97.349,110V98.912h61.3V110A11.284,11.284,0,0,1,147.367,121.287Z" fill="#f7cb15"/>
            </g>
            <g id="Group_4225" data-name="Group 4225">
              <path id="Path_5650" data-name="Path 5650" d="M95.785,109.684h0a6.4,6.4,0,0,1-7.016-5.728l-.809-8a6.4,6.4,0,0,1,5.728-7.016h0a6.4,6.4,0,0,1,7.016,5.728l.809,8A6.4,6.4,0,0,1,95.785,109.684Z" fill="#fff"/>
            </g>
            <g id="Group_4227" data-name="Group 4227">
              <g id="Group_4226" data-name="Group 4226">
                <path id="Path_5651" data-name="Path 5651" d="M160.215,109.684h0a6.4,6.4,0,0,0,7.016-5.728l.809-8a6.4,6.4,0,0,0-5.728-7.016h0a6.4,6.4,0,0,0-7.016,5.728l-.809,8A6.4,6.4,0,0,0,160.215,109.684Z" fill="#fff"/>
              </g>
            </g>
            <g id="Group_4232" data-name="Group 4232">
              <g id="Group_4229" data-name="Group 4229">
                <g id="Group_4228" data-name="Group 4228">
                  <path id="Path_5652" data-name="Path 5652" d="M160.331,105.241h0a3.662,3.662,0,0,0,4.011-3.275l.462-4.576a3.662,3.662,0,0,0-3.274-4.011h0a3.662,3.662,0,0,0-4.011,3.274l-.462,4.576A3.661,3.661,0,0,0,160.331,105.241Z" fill="#e6e7e8"/>
                </g>
              </g>
              <g id="Group_4231" data-name="Group 4231">
                <g id="Group_4230" data-name="Group 4230">
                  <path id="Path_5653" data-name="Path 5653" d="M95.669,105.241h0a3.662,3.662,0,0,1-4.011-3.275L91.2,97.39a3.662,3.662,0,0,1,3.275-4.011h0a3.662,3.662,0,0,1,4.011,3.274l.462,4.576A3.662,3.662,0,0,1,95.669,105.241Z" fill="#e6e7e8"/>
                </g>
              </g>
            </g>
          </g>
          <g id="Group_4234" data-name="Group 4234">
            <path id="Path_5654" data-name="Path 5654" d="M175.13,199.556H80.87a7.144,7.144,0,0,1-7.144-7.144V156.238a18,18,0,0,1,18-18h72.548a18,18,0,0,1,18,18v36.174A7.144,7.144,0,0,1,175.13,199.556Z" fill="#2e9da1"/>
          </g>
          <g id="Group_4235" data-name="Group 4235">
            <path id="Path_5655" data-name="Path 5655" d="M167.423,199.556H88.577A6.577,6.577,0,0,1,82,192.979v-38.17a16.571,16.571,0,0,1,16.571-16.571h58.857A16.571,16.571,0,0,1,174,154.809v38.17A6.576,6.576,0,0,1,167.423,199.556Z" fill="#53bcc0"/>
          </g>
          <g id="Group_4236" data-name="Group 4236">
            <path id="Path_5656" data-name="Path 5656" d="M175.13,191.556H80.87a7.144,7.144,0,0,1-7.144-7.144v8a7.143,7.143,0,0,0,7.144,7.144h94.26a7.144,7.144,0,0,0,7.144-7.144v-8A7.144,7.144,0,0,1,175.13,191.556Z" fill="#2e9da1"/>
          </g>
          <g id="Group_4237" data-name="Group 4237">
            <path id="Path_5657" data-name="Path 5657" d="M128,155.2A16.808,16.808,0,0,0,144.808,138.4v-.159H111.193v.159A16.806,16.806,0,0,0,128,155.2Z" fill="#009add"/>
          </g>
          <g id="Group_4238" data-name="Group 4238">
            <path id="Path_5658" data-name="Path 5658" d="M161.791,85.31c0,18.662-15.129,44.1-33.791,44.1s-33.791-25.435-33.791-44.1a33.791,33.791,0,1,1,67.582,0Z" fill="#fff"/>
          </g>
          <g id="Group_4239" data-name="Group 4239">
            <path id="Path_5659" data-name="Path 5659" d="M128,129.407a23.493,23.493,0,0,1-12.5-3.847v12.181a12.5,12.5,0,0,0,25,0V125.56A23.493,23.493,0,0,1,128,129.407Z" fill="#fff"/>
          </g>
          <g id="Group_4240" data-name="Group 4240">
            <path id="Path_5660" data-name="Path 5660" d="M128,129.407a23.493,23.493,0,0,1-12.5-3.847V131.5a22.167,22.167,0,0,0,25,0V125.56A23.493,23.493,0,0,1,128,129.407Z" fill="#d1d3d4"/>
          </g>
          <g id="Group_4241" data-name="Group 4241">
            <path id="Path_5661" data-name="Path 5661" d="M128,124.407c-17.831,0-32.435-23.218-33.7-41.565q-.088,1.223-.089,2.467c0,18.662,15.129,44.1,33.791,44.1s33.791-25.435,33.791-44.1q0-1.245-.089-2.467C160.435,101.188,145.831,124.407,128,124.407Z" fill="#e6e7e8"/>
          </g>
          <g id="Group_4244" data-name="Group 4244">
            <g id="Group_4242" data-name="Group 4242">
              <path id="Path_5662" data-name="Path 5662" d="M116.093,94.784a3.721,3.721,0,1,1-3.721-3.721A3.721,3.721,0,0,1,116.093,94.784Z" fill="#53bcc0"/>
            </g>
            <g id="Group_4243" data-name="Group 4243">
              <path id="Path_5663" data-name="Path 5663" d="M147.348,94.784a3.721,3.721,0,1,1-3.721-3.721A3.721,3.721,0,0,1,147.348,94.784Z" fill="#53bcc0"/>
            </g>
          </g>
        </g>
        <g id="Group_4246" data-name="Group 4246">
          <path id="Path_5664" data-name="Path 5664" d="M166.247,180.285c0-.071,0-.142-.006-.212,0-.01,0-.02,0-.029a15.633,15.633,0,0,0-7.59-12.868V164.97a3.19,3.19,0,0,0-3.19-3.19H144.47a3.186,3.186,0,0,0-2.744,1.564h0a.008.008,0,0,0,0,0c-.051.087-.1.177-.142.269l0,.006c-.014.03-.028.06-.041.091a0,0,0,0,1,0,0c-.014.031-.026.063-.039.1,0,0,0,0,0,0-.011.029-.022.058-.032.087l-.006.016c-.01.029-.02.058-.029.087,0,0,0,0,0,.006-.01.032-.02.065-.029.1l0,.01c-.007.027-.015.055-.021.082l-.006.025-.018.078c0,.006,0,.012,0,.018l-.018.094a.2.2,0,0,1,0,.024c0,.024-.008.048-.011.072s0,.022-.005.033l-.009.075a.177.177,0,0,0,0,.023c0,.031-.006.061-.008.092,0,.012,0,.024,0,.036l0,.064c0,.012,0,.024,0,.036s0,.053,0,.08H114.721c0-.027,0-.053,0-.08,0-.012,0-.024,0-.036l0-.064c0-.012,0-.024,0-.036,0-.031,0-.061-.008-.092l0-.023-.009-.075c0-.011,0-.022,0-.033s-.007-.048-.011-.072c0-.008,0-.016,0-.024-.006-.032-.011-.063-.018-.094,0-.006,0-.012,0-.018-.006-.026-.011-.052-.018-.078l-.006-.025-.021-.082,0-.01c-.009-.033-.019-.065-.029-.1l0-.006c-.009-.029-.019-.058-.029-.087l-.006-.016c-.01-.029-.021-.059-.032-.087,0,0,0,0,0,0l-.039-.1a0,0,0,0,0,0,0c-.013-.03-.027-.061-.041-.091l0-.006c-.043-.092-.091-.182-.142-.269l0,0h0a3.189,3.189,0,0,0-2.744-1.564H100.541a3.19,3.19,0,0,0-3.19,3.19v2.206a15.634,15.634,0,0,0-7.59,12.868c0,.01,0,.02,0,.029l-.006.212c0,.02,0,.041,0,.061,0,.082,0,.164,0,.246v18.964h23.955l1.072-3.324h26.445l1.072,3.324h23.956V180.592c0-.082,0-.164,0-.246C166.248,180.326,166.247,180.3,166.247,180.285Z" fill="#136da0"/>
        </g>
        <g id="Group_4256" data-name="Group 4256">
          <g id="Group_4247" data-name="Group 4247">
            <path id="Path_5665" data-name="Path 5665" d="M128,47.438h0A35.353,35.353,0,0,0,92.712,80.653a2.013,2.013,0,0,0,2,2.137h66.57a2.012,2.012,0,0,0,2-2.137A35.354,35.354,0,0,0,128,47.438Z" fill="#e55658"/>
          </g>
          <g id="Group_4248" data-name="Group 4248">
            <path id="Path_5666" data-name="Path 5666" d="M128,47.438h0A35.352,35.352,0,0,0,92.712,80.653a2.013,2.013,0,0,0,2,2.137h.3C96.163,64.172,110.49,49.454,128,49.454h0c17.51,0,31.837,14.718,32.987,33.336h.3a2.012,2.012,0,0,0,2-2.137A35.354,35.354,0,0,0,128,47.438Z" fill="#d14547"/>
          </g>
          <g id="Group_4249" data-name="Group 4249">
            <path id="Path_5667" data-name="Path 5667" d="M161.285,79.941H94.715a2,2,0,0,1-1.832-1.212c-.073.637-.133,1.278-.172,1.924a2.013,2.013,0,0,0,2,2.137h66.57a2.012,2.012,0,0,0,2-2.137c-.039-.647-.1-1.287-.172-1.924A2,2,0,0,1,161.285,79.941Z" fill="#d14547"/>
          </g>
          <g id="Group_4250" data-name="Group 4250">
            <rect id="Rectangle_1747" data-name="Rectangle 1747" width="12.185" height="8.56" transform="translate(129.51 71.381)" fill="#cf3134"/>
          </g>
          <g id="Group_4251" data-name="Group 4251">
            <path id="Path_5668" data-name="Path 5668" d="M131.043,79.941H115.825v-8.56h15.218a4.28,4.28,0,0,1,4.28,4.28h0A4.28,4.28,0,0,1,131.043,79.941Z" fill="#d14547"/>
          </g>
          <g id="Group_4252" data-name="Group 4252">
            <path id="Path_5669" data-name="Path 5669" d="M135.7,55.839H121.824a6,6,0,0,0-6,6v9.542H141.7V61.839A6,6,0,0,0,135.7,55.839Z" fill="#f7cb15"/>
          </g>
          <g id="Group_4253" data-name="Group 4253">
            <path id="Path_5670" data-name="Path 5670" d="M135.7,55.839H121.824a6,6,0,0,0-6,6v2a6,6,0,0,1,6-6H135.7a6,6,0,0,1,6,6v-2A6,6,0,0,0,135.7,55.839Z" fill="#cf3134"/>
          </g>
          <g id="Group_4254" data-name="Group 4254">
            <path id="Path_5671" data-name="Path 5671" d="M130.191,75.661a1.431,1.431,0,1,1-1.431-1.431A1.431,1.431,0,0,1,130.191,75.661Z" fill="#cf3134"/>
          </g>
          <g id="Group_4255" data-name="Group 4255">
            <path id="Path_5672" data-name="Path 5672" d="M123.39,75.661a1.431,1.431,0,1,1-1.431-1.431A1.431,1.431,0,0,1,123.39,75.661Z" fill="#cf3134"/>
          </g>
        </g>
        <g id="Group_4257" data-name="Group 4257">
          <path id="Path_5673" data-name="Path 5673" d="M134.417,48.48c0,1.678-2.649,3.038-5.917,3.038s-5.917-1.36-5.917-3.038,2.649-3.039,5.917-3.039S134.417,46.8,134.417,48.48Z" fill="#d14547"/>
        </g>
        <g id="Group_4258" data-name="Group 4258">
          <path id="Path_5674" data-name="Path 5674" d="M128.5,49.894c-2.72,0-5.01-.942-5.7-2.226a1.706,1.706,0,0,0-.214.813c0,1.678,2.649,3.038,5.917,3.038s5.917-1.36,5.917-3.038a1.705,1.705,0,0,0-.214-.813C133.51,48.951,131.22,49.894,128.5,49.894Z" fill="#e55658"/>
        </g>
        <g id="Group_4260" data-name="Group 4260">
          <g id="Group_4259" data-name="Group 4259">
            <path id="Path_5675" data-name="Path 5675" d="M158.057,102.972a48.375,48.375,0,0,0,3.734-17.662q0-1.342-.1-2.659l-9.177.147Z" fill="#f7cb15"/>
          </g>
        </g>
        <g id="Group_4262" data-name="Group 4262">
          <g id="Group_4261" data-name="Group 4261">
            <path id="Path_5676" data-name="Path 5676" d="M97.943,102.972A48.374,48.374,0,0,1,94.209,85.31q0-1.342.1-2.659l9.177.147Z" fill="#f7cb15"/>
          </g>
        </g>
        <g id="Group_4263" data-name="Group 4263">
          <path id="Path_5677" data-name="Path 5677" d="M116.093,82.79a74.712,74.712,0,0,0,37.788,4.984l-1.37-4.984Z" fill="#f7cb15"/>
        </g>
        <g id="Group_4264" data-name="Group 4264">
          <path id="Path_5678" data-name="Path 5678" d="M116.093,82.79c-3.482,4.242-8.573,6.579-14.714,7.673l2.109-7.673Z" fill="#f7cb15"/>
        </g>
      </g>
      <g id="Group_4313" data-name="Group 4313">
        <g id="Group_4266" data-name="Group 4266">
          <path id="Path_5679" data-name="Path 5679" d="M100.946,209.838h0a11.2,11.2,0,0,1-11.2-11.2v-22.05h30.073L111.6,202.079A11.2,11.2,0,0,1,100.946,209.838Z" fill="#d1d3d4"/>
        </g>
        <g id="Group_4267" data-name="Group 4267">
          <path id="Path_5680" data-name="Path 5680" d="M111.6,196.717A11.2,11.2,0,0,1,89.75,193.28v5.362a11.2,11.2,0,0,0,21.851,3.437l8.222-25.487h-1.73Z" fill="#bcbec0"/>
        </g>
        <g id="Group_4268" data-name="Group 4268">
          <path id="Path_5681" data-name="Path 5681" d="M155.054,209.838h0a11.2,11.2,0,0,0,11.2-11.2v-22.05H136.177l8.222,25.487A11.2,11.2,0,0,0,155.054,209.838Z" fill="#d1d3d4"/>
        </g>
        <g id="Group_4269" data-name="Group 4269">
          <path id="Path_5682" data-name="Path 5682" d="M155.054,204.475a11.2,11.2,0,0,1-10.655-7.759l-6.492-20.125h-1.73l8.222,25.487a11.2,11.2,0,0,0,21.851-3.437v-5.362A11.2,11.2,0,0,1,155.054,204.475Z" fill="#bcbec0"/>
        </g>
        <g id="Group_4270" data-name="Group 4270">
          <path id="Path_5683" data-name="Path 5683" d="M150.611,192.232H105.39a15.64,15.64,0,0,1-15.64-15.64h0a15.64,15.64,0,0,1,15.64-15.64h45.221a15.64,15.64,0,0,1,15.64,15.64h0A15.641,15.641,0,0,1,150.611,192.232Z" fill="#fff"/>
        </g>
        <g id="Group_4271" data-name="Group 4271">
          <path id="Path_5684" data-name="Path 5684" d="M150.611,160.952a15.565,15.565,0,0,1,8.04,2.223v-2.206a3.19,3.19,0,0,0-3.19-3.19H144.47a3.189,3.189,0,0,0-3.189,3.173h9.33Z" fill="#e55658"/>
        </g>
        <g id="Group_4272" data-name="Group 4272">
          <path id="Path_5685" data-name="Path 5685" d="M150.611,160.952a15.565,15.565,0,0,1,8.04,2.223v-1.609a15.568,15.568,0,0,0-8.04-2.223h-8.885a3.171,3.171,0,0,0-.445,1.609Z" fill="#cf3134"/>
        </g>
        <g id="Group_4273" data-name="Group 4273">
          <path id="Path_5686" data-name="Path 5686" d="M105.389,160.952h9.33a3.189,3.189,0,0,0-3.189-3.173H100.539a3.19,3.19,0,0,0-3.19,3.19v2.206A15.568,15.568,0,0,1,105.389,160.952Z" fill="#e55658"/>
        </g>
        <g id="Group_4274" data-name="Group 4274">
          <path id="Path_5687" data-name="Path 5687" d="M105.389,160.952h9.33a3.176,3.176,0,0,0-.445-1.609h-8.885a15.565,15.565,0,0,0-8.04,2.223v1.609A15.568,15.568,0,0,1,105.389,160.952Z" fill="#cf3134"/>
        </g>
        <g id="Group_4275" data-name="Group 4275">
          <path id="Path_5688" data-name="Path 5688" d="M150.611,190.087H105.39a15.64,15.64,0,0,1-15.6-14.567c-.024.354-.036.712-.036,1.072a15.64,15.64,0,0,0,15.64,15.64h45.221a15.64,15.64,0,0,0,15.64-15.64c0-.361-.013-.718-.036-1.072A15.644,15.644,0,0,1,150.611,190.087Z" fill="#e6e7e8"/>
        </g>
        <g id="Group_4292" data-name="Group 4292">
          <g id="Group_4283" data-name="Group 4283">
            <g id="Group_4276" data-name="Group 4276">
              <path id="Path_5689" data-name="Path 5689" d="M162.6,180.752l-6.365,6.365a4.792,4.792,0,0,1-6.778,0h0a4.792,4.792,0,0,1,0-6.778l6.365-6.365a4.792,4.792,0,0,1,6.778,0h0A4.792,4.792,0,0,1,162.6,180.752Z" fill="#e6e7e8"/>
            </g>
            <g id="Group_4277" data-name="Group 4277">
              <path id="Path_5690" data-name="Path 5690" d="M162.815,177.558a3.575,3.575,0,1,1-3.575-3.575A3.575,3.575,0,0,1,162.815,177.558Z" fill="#1caee4"/>
            </g>
            <g id="Group_4278" data-name="Group 4278">
              <path id="Path_5691" data-name="Path 5691" d="M159.24,178.988a3.576,3.576,0,0,1-3.411-2.5,3.575,3.575,0,1,0,6.986,1.072,3.546,3.546,0,0,0-.164-1.072A3.576,3.576,0,0,1,159.24,178.988Z" fill="#009add"/>
            </g>
            <g id="Group_4279" data-name="Group 4279">
              <circle id="Ellipse_828" data-name="Ellipse 828" cx="3.575" cy="3.575" r="3.575" transform="translate(149.465 180.183)" fill="#1caee4"/>
            </g>
            <g id="Group_4280" data-name="Group 4280">
              <path id="Path_5692" data-name="Path 5692" d="M153.04,185.188a3.576,3.576,0,0,1-3.411-2.5,3.575,3.575,0,1,0,6.986,1.072,3.546,3.546,0,0,0-.164-1.072A3.575,3.575,0,0,1,153.04,185.188Z" fill="#009add"/>
            </g>
            <g id="Group_4281" data-name="Group 4281">
              <path id="Path_5693" data-name="Path 5693" d="M159.24,179.971a2.413,2.413,0,1,1,2.413-2.413A2.416,2.416,0,0,1,159.24,179.971Zm0-4.289a1.877,1.877,0,1,0,1.876,1.877A1.879,1.879,0,0,0,159.24,175.682Z" fill="#27c1e6"/>
            </g>
            <g id="Group_4282" data-name="Group 4282">
              <path id="Path_5694" data-name="Path 5694" d="M153.04,186.171a2.413,2.413,0,1,1,2.414-2.413A2.416,2.416,0,0,1,153.04,186.171Zm0-4.289a1.877,1.877,0,1,0,1.877,1.876A1.879,1.879,0,0,0,153.04,181.882Z" fill="#27c1e6"/>
            </g>
          </g>
          <g id="Group_4291" data-name="Group 4291">
            <g id="Group_4284" data-name="Group 4284">
              <path id="Path_5695" data-name="Path 5695" d="M154.355,172.508l-6.365,6.365a4.792,4.792,0,0,1-6.778,0h0a4.792,4.792,0,0,1,0-6.778l6.365-6.365a4.792,4.792,0,0,1,6.778,0h0A4.794,4.794,0,0,1,154.355,172.508Z" fill="#e6e7e8"/>
            </g>
            <g id="Group_4285" data-name="Group 4285">
              <path id="Path_5696" data-name="Path 5696" d="M154.5,169.247a3.575,3.575,0,1,1-3.575-3.575A3.575,3.575,0,0,1,154.5,169.247Z" fill="#e55658"/>
            </g>
            <g id="Group_4286" data-name="Group 4286">
              <path id="Path_5697" data-name="Path 5697" d="M150.929,170.677a3.576,3.576,0,0,1-3.411-2.5,3.575,3.575,0,1,0,6.986,1.072,3.546,3.546,0,0,0-.164-1.072A3.576,3.576,0,0,1,150.929,170.677Z" fill="#cf3134"/>
            </g>
            <g id="Group_4287" data-name="Group 4287">
              <circle id="Ellipse_829" data-name="Ellipse 829" cx="3.575" cy="3.575" r="3.575" transform="translate(141.154 171.872)" fill="#e55658"/>
            </g>
            <g id="Group_4288" data-name="Group 4288">
              <path id="Path_5698" data-name="Path 5698" d="M144.729,176.877a3.576,3.576,0,0,1-3.411-2.5,3.575,3.575,0,1,0,6.986,1.072,3.546,3.546,0,0,0-.164-1.072A3.576,3.576,0,0,1,144.729,176.877Z" fill="#cf3134"/>
            </g>
            <g id="Group_4289" data-name="Group 4289">
              <path id="Path_5699" data-name="Path 5699" d="M150.929,171.66a2.413,2.413,0,1,1,2.414-2.413A2.416,2.416,0,0,1,150.929,171.66Zm0-4.29a1.877,1.877,0,1,0,1.877,1.877A1.879,1.879,0,0,0,150.929,167.37Z" fill="#f06ea9"/>
            </g>
            <g id="Group_4290" data-name="Group 4290">
              <path id="Path_5700" data-name="Path 5700" d="M144.729,177.86a2.413,2.413,0,1,1,2.414-2.413A2.416,2.416,0,0,1,144.729,177.86Zm0-4.29a1.877,1.877,0,1,0,1.877,1.877A1.879,1.879,0,0,0,144.729,173.57Z" fill="#f06ea9"/>
            </g>
          </g>
        </g>
        <g id="Group_4293" data-name="Group 4293">
          <path id="Path_5701" data-name="Path 5701" d="M134.689,185.641H121.31a6.591,6.591,0,0,0-6.591,6.591H141.28A6.591,6.591,0,0,0,134.689,185.641Z" fill="#e6e7e8"/>
        </g>
        <g id="Group_4294" data-name="Group 4294">
          <path id="Path_5702" data-name="Path 5702" d="M121.311,167.543H134.69a6.591,6.591,0,0,0,6.591-6.591H114.72A6.591,6.591,0,0,0,121.311,167.543Z" fill="#009add"/>
        </g>
        <g id="Group_4301" data-name="Group 4301">
          <g id="Group_4295" data-name="Group 4295">
            <circle id="Ellipse_830" data-name="Ellipse 830" cx="9.831" cy="9.831" r="9.831" transform="translate(95.827 166.761)" fill="#e6e7e8"/>
          </g>
          <g id="Group_4296" data-name="Group 4296">
            <path id="Path_5703" data-name="Path 5703" d="M112.521,177.665a6.864,6.864,0,1,1-6.864-6.864A6.864,6.864,0,0,1,112.521,177.665Z" fill="#bcbec0"/>
          </g>
          <g id="Group_4300" data-name="Group 4300">
            <g id="Group_4297" data-name="Group 4297">
              <circle id="Ellipse_831" data-name="Ellipse 831" cx="6.864" cy="6.864" r="6.864" transform="translate(98.794 169.728)" fill="#1caee4"/>
            </g>
            <g id="Group_4298" data-name="Group 4298">
              <path id="Path_5704" data-name="Path 5704" d="M105.658,179.068a6.868,6.868,0,0,1-6.506-4.67,6.864,6.864,0,1,0,13.012,0A6.868,6.868,0,0,1,105.658,179.068Z" fill="#009add"/>
            </g>
            <g id="Group_4299" data-name="Group 4299">
              <path id="Path_5705" data-name="Path 5705" d="M105.657,181.167a4.575,4.575,0,1,1,4.575-4.574A4.58,4.58,0,0,1,105.657,181.167Zm0-8.613a4.038,4.038,0,1,0,4.038,4.039A4.043,4.043,0,0,0,105.657,172.554Z" fill="#27c1e6"/>
            </g>
          </g>
        </g>
        <g id="Group_4302" data-name="Group 4302">
          <path id="Path_5706" data-name="Path 5706" d="M131.4,190.176H124.6a.983.983,0,0,1-.983-.983h0a.983.983,0,0,1,.983-.983H131.4a.983.983,0,0,1,.983.983h0A.983.983,0,0,1,131.4,190.176Z" fill="#bcbec0"/>
        </g>
        <g id="Group_4309" data-name="Group 4309">
          <g id="Group_4303" data-name="Group 4303">
            <circle id="Ellipse_832" data-name="Ellipse 832" cx="1.564" cy="1.564" r="1.564" transform="translate(121.074 162.684)" fill="#fff"/>
          </g>
          <g id="Group_4304" data-name="Group 4304">
            <path id="Path_5707" data-name="Path 5707" d="M122.638,165.276a1.565,1.565,0,0,1-1.541-1.3,1.581,1.581,0,0,0-.023.268,1.564,1.564,0,0,0,3.128,0,1.581,1.581,0,0,0-.023-.268A1.565,1.565,0,0,1,122.638,165.276Z" fill="#d1d3d4"/>
          </g>
          <g id="Group_4305" data-name="Group 4305">
            <circle id="Ellipse_833" data-name="Ellipse 833" cx="1.564" cy="1.564" r="1.564" transform="translate(126.436 162.684)" fill="#fff"/>
          </g>
          <g id="Group_4306" data-name="Group 4306">
            <path id="Path_5708" data-name="Path 5708" d="M128,165.276a1.565,1.565,0,0,1-1.541-1.3,1.581,1.581,0,0,0-.023.268,1.564,1.564,0,0,0,3.128,0,1.581,1.581,0,0,0-.023-.268A1.565,1.565,0,0,1,128,165.276Z" fill="#d1d3d4"/>
          </g>
          <g id="Group_4307" data-name="Group 4307">
            <circle id="Ellipse_834" data-name="Ellipse 834" cx="1.564" cy="1.564" r="1.564" transform="translate(131.798 162.684)" fill="#fff"/>
          </g>
          <g id="Group_4308" data-name="Group 4308">
            <path id="Path_5709" data-name="Path 5709" d="M133.362,165.276a1.565,1.565,0,0,1-1.541-1.3,1.581,1.581,0,0,0-.023.268,1.564,1.564,0,1,0,3.128,0,1.581,1.581,0,0,0-.023-.268A1.564,1.564,0,0,1,133.362,165.276Z" fill="#d1d3d4"/>
          </g>
        </g>
        <g id="Group_4312" data-name="Group 4312">
          <g id="Group_4310" data-name="Group 4310">
            <path id="Path_5710" data-name="Path 5710" d="M135.155,181.854h-14.31a2.145,2.145,0,0,1-2.145-2.145v-6.228a2.145,2.145,0,0,1,2.145-2.145h14.31a2.145,2.145,0,0,1,2.145,2.145v6.228A2.145,2.145,0,0,1,135.155,181.854Z" fill="#d1d3d4"/>
          </g>
          <g id="Group_4311" data-name="Group 4311">
            <path id="Path_5711" data-name="Path 5711" d="M135.155,171.336h-14.31a2.145,2.145,0,0,0-2.145,2.145v1.072a2.145,2.145,0,0,1,2.145-2.145h14.31a2.145,2.145,0,0,1,2.145,2.145v-1.072A2.145,2.145,0,0,0,135.155,171.336Z" fill="#bcbec0"/>
          </g>
        </g>
      </g>
      <g id="Group_4323" data-name="Group 4323">
        <g id="Group_4314" data-name="Group 4314">
          <path id="Path_5712" data-name="Path 5712" d="M160.263,114.15h6.375a6,6,0,0,0,6-6V92.626a6,6,0,0,0-6-6h-6.375a2,2,0,0,0-2,2v23.523A2,2,0,0,0,160.263,114.15Z" fill="#009add"/>
        </g>
        <g id="Group_4315" data-name="Group 4315">
          <path id="Path_5713" data-name="Path 5713" d="M166.638,86.626h-6.375a2,2,0,0,0-2,2v4a2,2,0,0,1,2-2h6.375a6,6,0,0,1,6,6v-4A6,6,0,0,0,166.638,86.626Z" fill="#1caee4"/>
        </g>
        <g id="Group_4316" data-name="Group 4316">
          <path id="Path_5714" data-name="Path 5714" d="M166.638,104.15h-6.375a2,2,0,0,1-2-2v10a2,2,0,0,0,2,2h6.375a6,6,0,0,0,6-6v-10A6,6,0,0,1,166.638,104.15Z" fill="#136da0"/>
        </g>
        <g id="Group_4322" data-name="Group 4322">
          <g id="Group_4317" data-name="Group 4317">
            <path id="Path_5715" data-name="Path 5715" d="M95.737,114.15H89.362a6,6,0,0,1-6-6V92.626a6,6,0,0,1,6-6h6.375a2,2,0,0,1,2,2v23.523A2,2,0,0,1,95.737,114.15Z" fill="#009add"/>
          </g>
          <g id="Group_4318" data-name="Group 4318">
            <path id="Path_5716" data-name="Path 5716" d="M137.851,38.162h-19.7a31.035,31.035,0,0,0-31,31V87.047a5.98,5.98,0,0,1,2.213-.421H93.15V69.162a25.028,25.028,0,0,1,25-25h19.7a25.028,25.028,0,0,1,25,25V86.626h3.787a6,6,0,0,1,2.213.421V69.162A31.036,31.036,0,0,0,137.851,38.162Z" fill="#147f87"/>
          </g>
          <g id="Group_4319" data-name="Group 4319">
            <path id="Path_5717" data-name="Path 5717" d="M137.85,41.162h-19.7a28,28,0,0,0-28,28V86.626h3V69.162a25.028,25.028,0,0,1,25-25h19.7a25.028,25.028,0,0,1,25,25V86.626h3V69.162A28,28,0,0,0,137.85,41.162Z" fill="#136da0"/>
          </g>
          <g id="Group_4320" data-name="Group 4320">
            <path id="Path_5718" data-name="Path 5718" d="M95.737,86.626H89.362a6,6,0,0,0-6,6v4a6,6,0,0,1,6-6h6.375a2,2,0,0,1,2,2v-4A2,2,0,0,0,95.737,86.626Z" fill="#1caee4"/>
          </g>
          <g id="Group_4321" data-name="Group 4321">
            <path id="Path_5719" data-name="Path 5719" d="M95.737,104.15H89.362a6,6,0,0,1-6-6v10a6,6,0,0,0,6,6h6.375a2,2,0,0,0,2-2v-10A2,2,0,0,1,95.737,104.15Z" fill="#136da0"/>
          </g>
        </g>
      </g>
    </g>
  </g>
</svg>
