<svg xmlns="http://www.w3.org/2000/svg" width="36.25" height="29" viewBox="0 0 36.25 29">
  <defs>
    <style>
      .cls-1 {
        fill: #fdd343;
      }
    </style>
  </defs>
  <path id="Icon_awesome-door-open" data-name="Icon awesome-door-open" class="cls-1" d="M35.343,25.375H30.812V6.426a2.764,2.764,0,0,0-2.719-2.8H21.75V7.25h5.437V29h8.156a.906.906,0,0,0,.906-.906V26.281A.906.906,0,0,0,35.343,25.375ZM17.685.057,6.81,2.874A1.867,1.867,0,0,0,5.437,4.7V25.375H.906A.906.906,0,0,0,0,26.281v1.812A.906.906,0,0,0,.906,29H19.937V1.879A1.828,1.828,0,0,0,17.685.057ZM14.953,16.312c-.75,0-1.359-.812-1.359-1.812s.609-1.812,1.359-1.812,1.359.812,1.359,1.812S15.7,16.312,14.953,16.312Z" transform="translate(0 0)"/>
</svg>
