<svg id="XMLID_178_" xmlns="http://www.w3.org/2000/svg" width="298.65" height="357.932" viewBox="0 0 298.65 357.932">
  <path id="XMLID_198_" d="M65.032,121.463H47.276A27.329,27.329,0,0,1,19.941,94.129V54.561A27.329,27.329,0,0,1,47.276,27.227H65.032A27.329,27.329,0,0,1,92.367,54.561V94.129A27.329,27.329,0,0,1,65.032,121.463Z" transform="translate(93.171 167.678)" fill="#edbb98"/>
  <path id="XMLID_197_" d="M189.678,36.484v.629a27.329,27.329,0,0,1-27.334,27.334H144.587a27.329,27.329,0,0,1-27.334-27.334v-.629C60.347,48.788,16.025,86.679,4.141,132.958c-.14.629,75.361,0,149.325,0s149.534.629,149.325,0C290.906,86.679,246.584,48.788,189.678,36.484Z" transform="translate(-4.141 224.694)" fill="#29abe2"/>
  <g id="XMLID_179_" transform="translate(36.843)">
    <ellipse id="XMLID_196_" cx="20.064" cy="27.684" rx="20.064" ry="27.684" transform="translate(189.221 118.775) rotate(12.263)" fill="#f4c5a2"/>
    <ellipse id="XMLID_195_" cx="20.064" cy="27.684" rx="20.064" ry="27.684" transform="translate(50.973 174.692) rotate(167.737)" fill="#f4c5a2"/>
    <ellipse id="XMLID_194_" cx="86.127" cy="100.459" rx="86.127" ry="100.459" transform="translate(28.312 47.887)" fill="#f4c5a2"/>
    <g id="XMLID_183_" transform="translate(57.464 111.053)">
      <g id="XMLID_189_" transform="translate(73.264)">
        <path id="XMLID_193_" d="M27.549,26.8a21.826,21.826,0,0,1,8.6-8.109,24.961,24.961,0,0,1,11.745-3.146,26.444,26.444,0,0,1,6.222.559,22.9,22.9,0,0,1,5.732,2.307,20.714,20.714,0,0,1,4.894,3.635A12.633,12.633,0,0,1,66.7,24.353c.559.839,1.119,1.608,1.608,2.517-2.027-.419-3.705-1.188-5.453-1.608a47.43,47.43,0,0,0-5.033-1.188c-1.608-.419-3.286-.489-4.824-.769-1.608,0-3.216-.21-4.824-.07a61.73,61.73,0,0,0-9.857,1.119C34.889,24.982,31.394,25.821,27.549,26.8Z" transform="translate(-27.549 -15.513)" fill="#333"/>
        <g id="XMLID_190_" transform="translate(9.997 16.6)">
          <circle id="XMLID_192_" cx="10.346" cy="10.346" r="10.346" fill="#333"/>
          <circle id="XMLID_191_" cx="2.587" cy="2.587" r="2.587" transform="translate(9.508 0.21)" fill="#f2f2f2"/>
        </g>
      </g>
      <g id="XMLID_184_">
        <path id="XMLID_188_" d="M17.314,26.8a21.826,21.826,0,0,1,8.6-8.109,24.961,24.961,0,0,1,11.745-3.146,26.444,26.444,0,0,1,6.222.559,22.9,22.9,0,0,1,5.733,2.307,20.714,20.714,0,0,1,4.894,3.635,12.634,12.634,0,0,1,1.957,2.307c.559.839,1.119,1.608,1.608,2.517-2.027-.419-3.705-1.188-5.453-1.608a47.432,47.432,0,0,0-5.033-1.188c-1.608-.419-3.286-.489-4.824-.769-1.608,0-3.216-.21-4.824-.07a61.73,61.73,0,0,0-9.857,1.119C24.585,24.982,21.159,25.821,17.314,26.8Z" transform="translate(-17.314 -15.513)" fill="#333"/>
        <g id="XMLID_185_" transform="translate(9.997 16.6)">
          <circle id="XMLID_187_" cx="10.346" cy="10.346" r="10.346" fill="#333"/>
          <circle id="XMLID_186_" cx="2.587" cy="2.587" r="2.587" transform="translate(9.438 0.21)" fill="#f2f2f2"/>
        </g>
      </g>
    </g>
    <path id="XMLID_182_" d="M20.879,27.188a82.571,82.571,0,0,0,15.59,5.033,70.9,70.9,0,0,0,15.8,1.608,35.771,35.771,0,0,0,3.915-.21,35.422,35.422,0,0,0,3.915-.35c1.328-.21,2.587-.419,3.915-.559l3.915-.839,1.957-.419c.629-.14,1.258-.419,1.957-.559l3.915-1.119c2.657-.769,5.173-1.888,7.97-2.587a69.438,69.438,0,0,1-6.781,5.173,52.63,52.63,0,0,1-7.69,3.845c-1.328.489-2.726,1.049-4.055,1.468-1.4.35-2.8.629-4.264.979a29.425,29.425,0,0,1-4.334.629,30.737,30.737,0,0,1-4.334.28A44.776,44.776,0,0,1,35.14,36.485,38.238,38.238,0,0,1,20.879,27.188Z" transform="translate(62.102 167.438)" fill="#f4a56e"/>
    <path id="XMLID_181_" d="M23.242,24.072c2.8.769,5.243,1.4,7.62,1.818a40.355,40.355,0,0,0,6.991.769,29.826,29.826,0,0,0,6.921-.7c1.188-.14,2.377-.559,3.635-.839s2.517-.839,3.985-1.049a17.76,17.76,0,0,1-2.517,3.5,16.938,16.938,0,0,1-12.094,4.894,18.038,18.038,0,0,1-8.529-2.237A16.364,16.364,0,0,1,23.242,24.072Z" transform="translate(76.656 148.252)" fill="#f4a56e"/>
    <path id="XMLID_180_" d="M122.394,67.532s18.945,37.611,62.708,40.9c0,0,12.514,26.5,5.8,39.848l15.17-23.769s13.353-3.565,20.9,5.872c0,0,18.036-80.954-38.59-112.832,0,0,10-6.641,11.4-6.641s-15.17.979-20.413,3.775V0l-10,12.374s-59.842-33.7-128.841,12.444c0,0-47.887,39.009-24.678,110.106,0,0,7.55-16.219,22.3-7.27,0,0,8.249,16.289,15.52,24.258,0,0-10.346-39.149,9.158-62.918,0,0,2.167,16.848,12.514,19.5,0,0-6.012-13.492,2.657-32.507,0,0,6.921,37.191,38.03,37.751C116.172,113.671,94.5,81.863,122.394,67.532Z" transform="translate(-7.954)" fill="#3f2820"/>
  </g>
</svg>
