<svg xmlns="http://www.w3.org/2000/svg" width="238.8" height="238.8" viewBox="0 0 238.8 238.8">
  <g id="safe-environment" transform="translate(-8.6 -8.6)">
    <g id="Group_5301" data-name="Group 5301">
      <circle id="Ellipse_942" data-name="Ellipse 942" cx="119.4" cy="119.4" r="119.4" transform="translate(8.6 8.6)" fill="#106d74"/>
      <circle id="Ellipse_943" data-name="Ellipse 943" cx="103.299" cy="103.299" r="103.299" transform="translate(24.701 24.701)" fill="#147f87"/>
    </g>
    <path id="Path_6928" data-name="Path 6928" d="M175.191,78.6l-45-17.647a6,6,0,0,0-4.381,0L80.81,78.6A6,6,0,0,0,77,84.189V159.1c0,24.287,37.918,44.608,48.364,49.746a5.963,5.963,0,0,0,5.272,0C141.082,203.706,179,183.384,179,159.1V84.189A6,6,0,0,0,175.191,78.6Z" fill="#33312c"/>
    <g id="Group_5302" data-name="Group 5302">
      <path id="Path_6929" data-name="Path 6929" d="M130.636,201.844a5.963,5.963,0,0,1-5.272,0C114.918,196.706,77,176.384,77,152.1V83.189A6,6,0,0,1,80.809,77.6l45-17.647a6,6,0,0,1,4.381,0l45,17.647A6,6,0,0,1,179,83.189V152.1C179,176.384,141.082,196.706,130.636,201.844Z" fill="#d1d3d4"/>
      <path id="Path_6930" data-name="Path 6930" d="M130.636,195.844a5.963,5.963,0,0,1-5.272,0C114.918,190.706,77,170.384,77,146.1V77.189A6,6,0,0,1,80.809,71.6l45-17.647a6,6,0,0,1,4.381,0l45,17.647A6,6,0,0,1,179,77.189V146.1C179,170.384,141.082,190.706,130.636,195.844Z" fill="#fff"/>
      <path id="Path_6931" data-name="Path 6931" d="M130.171,183.493a4.9,4.9,0,0,1-4.342,0C117.227,179.251,86,162.472,86,142.419v-56.9a4.954,4.954,0,0,1,3.137-4.612L126.2,66.342a4.929,4.929,0,0,1,3.608,0l37.059,14.57A4.954,4.954,0,0,1,170,85.524v56.9C170,162.472,138.773,179.251,130.171,183.493Z" fill="#d14547"/>
      <path id="Path_6932" data-name="Path 6932" d="M129.525,183.493a2.547,2.547,0,0,1-3.05,0c-6.042-4.242-27.975-21.021-27.975-41.074V85.524a5.253,5.253,0,0,1,2.2-4.612l26.03-14.57a2.518,2.518,0,0,1,2.534,0L155.3,80.912a5.253,5.253,0,0,1,2.2,4.612v56.9C157.5,162.472,135.567,179.251,129.525,183.493Z" fill="#e55658"/>
      <path id="Path_6933" data-name="Path 6933" d="M145.6,120.386h-8.958a2.265,2.265,0,0,1-2.1-3.111l7.1-17.665a2.266,2.266,0,0,0-2.1-3.111h-19.49a2.265,2.265,0,0,0-2.1,1.421l-11.178,27.805a2.266,2.266,0,0,0,2.1,3.111h10.7a2.265,2.265,0,0,1,2.1,3.111l-10.222,25.426a2.266,2.266,0,0,0,3.785,2.362l32.049-35.566A2.265,2.265,0,0,0,145.6,120.386Z" fill="#e43d91"/>
      <path id="Path_6934" data-name="Path 6934" d="M145.6,115.386h-8.958a2.265,2.265,0,0,1-2.1-3.111l7.1-17.665a2.266,2.266,0,0,0-2.1-3.111h-19.49a2.265,2.265,0,0,0-2.1,1.421l-11.178,27.805a2.266,2.266,0,0,0,2.1,3.111h10.7a2.265,2.265,0,0,1,2.1,3.111l-10.222,25.426a2.266,2.266,0,0,0,3.785,2.362l32.049-35.566A2.265,2.265,0,0,0,145.6,115.386Z" fill="#fede3a"/>
      <path id="Path_6935" data-name="Path 6935" d="M145.6,115.386h-.09l-30.276,33.6a2.186,2.186,0,0,1-2.638.533l-1.148,2.855a2.266,2.266,0,0,0,3.785,2.362l32.049-35.566A2.265,2.265,0,0,0,145.6,115.386Z" fill="#e7ad27"/>
      <path id="Path_6936" data-name="Path 6936" d="M140.488,91.722,132.1,112.5a2.257,2.257,0,0,0,1.15,2.889h3.388a2.266,2.266,0,0,1-2.1-3.111l4.995-12.425-.01,0,2.117-5.242A2.257,2.257,0,0,0,140.488,91.722Z" fill="#e7ad27"/>
      <path id="Path_6937" data-name="Path 6937" d="M121.833,118.086H108.868a2.24,2.24,0,0,1-.952-.222l-1.15,2.861a2.266,2.266,0,0,0,2.1,3.111h10.7a2.257,2.257,0,0,1,2.139,2.97l1.165-2.958,1.066-2.651A2.266,2.266,0,0,0,121.833,118.086Z" fill="#e7ad27"/>
    </g>
  </g>
</svg>
