<svg xmlns="http://www.w3.org/2000/svg" width="238.8" height="238.8" viewBox="0 0 238.8 238.8">
  <g id="social-platform" transform="translate(-8.6 -8.6)">
    <g id="Group_5981" data-name="Group 5981">
      <circle id="Ellipse_1020" data-name="Ellipse 1020" cx="119.4" cy="119.4" r="119.4" transform="translate(8.6 8.6)" fill="#106d74"/>
      <circle id="Ellipse_1021" data-name="Ellipse 1021" cx="103.299" cy="103.299" r="103.299" transform="translate(24.701 24.701)" fill="#147f87"/>
    </g>
    <path id="Path_7687" data-name="Path 7687" d="M204.089,171.713l.017-.02c.034-.041.068-.083.1-.126l.014-.019c.033-.044.065-.088.1-.133l.007-.01a4.068,4.068,0,0,0,.268-.452s0,0,0,0c.026-.052.051-.1.075-.157h0a4,4,0,0,0-.818-4.475l-6.607-6.607V89.02a6,6,0,0,0-6-6H143.475V75.558a4.808,4.808,0,0,0-4.808-4.808H117.332a4.808,4.808,0,0,0-4.808,4.808V83.02H64.757a6,6,0,0,0-6,6v80.75a6,6,0,0,0,6,6H112v17.707h-7.832a5.043,5.043,0,0,0-5.043,5.043h0a5.043,5.043,0,0,0,5.043,5.043h47.664a5.043,5.043,0,0,0,5.043-5.043h0a5.043,5.043,0,0,0-5.043-5.043H144V175.77h47.243a6,6,0,0,0,5.025-2.721h0l0,0c.019-.028.037-.057.055-.086v0c.054-.086.106-.173.156-.262l.01-.018c.015-.028.031-.055.045-.083l.005-.01q.069-.131.132-.264c0-.009.009-.018.013-.028.039-.084.076-.168.111-.254.005-.012.01-.023.014-.035s.019-.048.029-.073l.018-.047c.014-.036.027-.072.04-.108l.022-.063c.008-.022.015-.044.022-.067s.013-.038.019-.058.013-.042.02-.063.013-.045.02-.067.018-.062.026-.092.014-.05.02-.075l.015-.059c.006-.024.012-.048.017-.072s.009-.039.014-.059l.021-.094c.005-.022.009-.044.013-.065l.006-.029,1.06,1.059a3.99,3.99,0,0,0,1.144.8,3.791,3.791,0,0,0,.453.177,4.038,4.038,0,0,0,.562.137l.1.015a4.083,4.083,0,0,0,.574.041c.064,0,.128,0,.192-.005.1-.005.192-.013.287-.024s.191-.026.285-.045l.094-.019c.063-.014.125-.029.188-.046l.093-.026a4.062,4.062,0,0,0,.634-.248c.029-.014.059-.029.088-.045.058-.031.116-.063.172-.1a3.752,3.752,0,0,0,.333-.22c.054-.04.107-.081.159-.124a3.915,3.915,0,0,0,.3-.275c.041-.041.08-.082.118-.124l.015-.016C204.019,171.794,204.055,171.754,204.089,171.713Z" fill="#33312c"/>
    <g id="Group_5990" data-name="Group 5990">
      <g id="Group_5982" data-name="Group 5982">
        <path id="Path_7688" data-name="Path 7688" d="M191.243,168.77H64.757a6,6,0,0,1-6-6V84.02a6,6,0,0,1,6-6H191.243a6,6,0,0,1,6,6v78.75A6,6,0,0,1,191.243,168.77Z" fill="#136da0"/>
        <path id="Path_7689" data-name="Path 7689" d="M191.243,166.77H64.757a6,6,0,0,1-6-6V82.02a6,6,0,0,1,6-6H191.243a6,6,0,0,1,6,6v78.75A6,6,0,0,1,191.243,166.77Z" fill="#53bcc0"/>
        <path id="Path_7690" data-name="Path 7690" d="M189.167,161.478H66.833a4,4,0,0,1-4-4V84.562a4,4,0,0,1,4-4H189.166a4,4,0,0,1,4,4v72.917A4,4,0,0,1,189.167,161.478Z" fill="#f7cb15"/>
        <path id="Path_7691" data-name="Path 7691" d="M128,80.562H66.833a4,4,0,0,0-4,4v72.917a4,4,0,0,0,4,4H128Z" fill="#e55658"/>
        <path id="Path_7692" data-name="Path 7692" d="M189.167,80.562H128v3h61.167a4,4,0,0,1,4,4v-3A4,4,0,0,0,189.167,80.562Z" fill="#e7ad27"/>
        <path id="Path_7693" data-name="Path 7693" d="M66.833,83.562H128v-3H66.833a4,4,0,0,0-4,4v3A4,4,0,0,1,66.833,83.562Z" fill="#e43d91"/>
        <path id="Path_7694" data-name="Path 7694" d="M151.832,196.563H104.168a5.043,5.043,0,0,1-5.043-5.043h0a5.043,5.043,0,0,1,5.043-5.043h47.664a5.043,5.043,0,0,1,5.043,5.043h0A5.043,5.043,0,0,1,151.832,196.563Z" fill="#fff"/>
        <path id="Path_7695" data-name="Path 7695" d="M151.832,193H104.168a5.031,5.031,0,0,1-4.7-3.262,5.01,5.01,0,0,0,4.7,6.824h47.664a5.01,5.01,0,0,0,4.7-6.824A5.031,5.031,0,0,1,151.832,193Z" fill="#d1d3d4"/>
        <rect id="Rectangle_1952" data-name="Rectangle 1952" width="32" height="17.707" transform="translate(112 168.77)" fill="#d1d3d4"/>
        <rect id="Rectangle_1953" data-name="Rectangle 1953" width="32" height="5.125" transform="translate(112 168.77)" fill="#bcbec0"/>
      </g>
      <g id="Group_5986" data-name="Group 5986">
        <path id="Path_7696" data-name="Path 7696" d="M183.071,132.317l-6.852-6.186a1.794,1.794,0,0,1,0-2.662l6.852-6.186a1.793,1.793,0,0,0-1.293-3.121l-9.219.471a1.793,1.793,0,0,1-1.882-1.882l.471-9.219a1.793,1.793,0,0,0-3.121-1.293l-6.186,6.852a1.794,1.794,0,0,1-2.662,0l-6.186-6.852a1.794,1.794,0,0,0-3.122,1.293l.471,9.219a1.793,1.793,0,0,1-1.882,1.882l-9.219-.471a1.793,1.793,0,0,0-1.293,3.121l6.852,6.186a1.794,1.794,0,0,1,0,2.662l-6.852,6.186a1.794,1.794,0,0,0,1.293,3.122l9.219-.471a1.793,1.793,0,0,1,1.882,1.882l-.471,9.219a1.793,1.793,0,0,0,3.121,1.293l6.186-6.852a1.794,1.794,0,0,1,2.662,0l6.186,6.852a1.794,1.794,0,0,0,3.122-1.293l-.471-9.219a1.793,1.793,0,0,1,1.882-1.882l9.219.471a1.793,1.793,0,0,0,1.293-3.122Z" fill="#e7ad27"/>
        <g id="Group_5983" data-name="Group 5983">
          <path id="Path_7697" data-name="Path 7697" d="M160.51,121.126Z" fill="#e7ad27"/>
          <path id="Path_7698" data-name="Path 7698" d="M160.51,121.126Z" fill="#e7ad27"/>
          <path id="Path_7699" data-name="Path 7699" d="M160.51,121.126Z" fill="#e7ad27"/>
          <path id="Path_7700" data-name="Path 7700" d="M160.51,121.126Z" fill="#e7ad27"/>
          <path id="Path_7701" data-name="Path 7701" d="M160.51,121.126Z" fill="#e7ad27"/>
          <path id="Path_7702" data-name="Path 7702" d="M160.51,121.126h15.118a1.787,1.787,0,0,1,.591-1.331l6.852-6.186a1.766,1.766,0,0,0,.419-2.1l-22.98,9.614Z" fill="#fff335"/>
          <path id="Path_7703" data-name="Path 7703" d="M160.51,121.126Z" fill="#e7ad27"/>
          <path id="Path_7704" data-name="Path 7704" d="M160.51,121.126Z" fill="#e7ad27"/>
          <path id="Path_7705" data-name="Path 7705" d="M160.51,121.126Z" fill="#e7ad27"/>
          <path id="Path_7706" data-name="Path 7706" d="M160.51,121.126Z" fill="#e7ad27"/>
          <path id="Path_7707" data-name="Path 7707" d="M183.49,111.513a1.76,1.76,0,0,0-1.712-1.025l-9.219.471a1.784,1.784,0,0,1-1.359-.523l-10.69,10.69Z" fill="#fede3a"/>
          <path id="Path_7708" data-name="Path 7708" d="M160.51,121.126Z" fill="#e7ad27"/>
          <path id="Path_7709" data-name="Path 7709" d="M160.51,121.126Z" fill="#e7ad27"/>
          <path id="Path_7710" data-name="Path 7710" d="M160.51,121.126Z" fill="#e7ad27"/>
          <path id="Path_7711" data-name="Path 7711" d="M160.51,136.244a1.787,1.787,0,0,1,1.331.591l6.186,6.852a1.766,1.766,0,0,0,2.1.419l-9.613-22.98v15.118Z" fill="#fff335"/>
          <path id="Path_7712" data-name="Path 7712" d="M160.51,121.126l-9.452,23.047a1.758,1.758,0,0,0,1.935-.486l6.186-6.852a1.787,1.787,0,0,1,1.331-.591V121.126Z" fill="#fede3a"/>
          <path id="Path_7713" data-name="Path 7713" d="M149.82,131.816a1.789,1.789,0,0,1,.523,1.359l-.471,9.219a1.766,1.766,0,0,0,1.186,1.779l9.452-23.047Z" fill="#fff335"/>
          <path id="Path_7714" data-name="Path 7714" d="M160.51,121.126h0l-22.98,9.613a1.76,1.76,0,0,0,1.712,1.025l9.219-.471a1.783,1.783,0,0,1,1.359.523l10.69-10.69Z" fill="#fede3a"/>
          <path id="Path_7715" data-name="Path 7715" d="M183.071,128.643l-6.852-6.186a1.786,1.786,0,0,1-.591-1.331H160.51l23.047,9.452A1.758,1.758,0,0,0,183.071,128.643Z" fill="#fede3a"/>
          <path id="Path_7716" data-name="Path 7716" d="M160.51,121.126l10.69-10.69a1.789,1.789,0,0,1-.523-1.359l.471-9.219a1.766,1.766,0,0,0-1.186-1.779l-9.452,23.047Z" fill="#fff335"/>
          <path id="Path_7717" data-name="Path 7717" d="M170.123,144.106a1.76,1.76,0,0,0,1.025-1.712l-.471-9.219a1.786,1.786,0,0,1,.523-1.359l-10.69-10.69Z" fill="#fede3a"/>
          <path id="Path_7718" data-name="Path 7718" d="M171.2,131.816a1.786,1.786,0,0,1,1.359-.523l9.219.471a1.766,1.766,0,0,0,1.779-1.186l-23.047-9.452Z" fill="#fff335"/>
          <path id="Path_7719" data-name="Path 7719" d="M160.51,121.126V106.008a1.787,1.787,0,0,1-1.331-.591l-6.186-6.852a1.766,1.766,0,0,0-2.1-.419l9.614,22.98Z" fill="#fff335"/>
          <path id="Path_7720" data-name="Path 7720" d="M160.51,121.126,150.9,98.146a1.76,1.76,0,0,0-1.025,1.712l.471,9.219a1.783,1.783,0,0,1-.523,1.359l10.69,10.69Z" fill="#fede3a"/>
          <path id="Path_7721" data-name="Path 7721" d="M169.962,98.079a1.758,1.758,0,0,0-1.935.486l-6.186,6.852a1.787,1.787,0,0,1-1.331.591v15.118Z" fill="#fede3a"/>
          <path id="Path_7722" data-name="Path 7722" d="M160.51,121.126H145.392a1.787,1.787,0,0,1-.591,1.331l-6.852,6.186a1.766,1.766,0,0,0-.419,2.1l22.98-9.614Z" fill="#fff335"/>
          <path id="Path_7723" data-name="Path 7723" d="M160.51,121.126l-10.69-10.69a1.786,1.786,0,0,1-1.359.523l-9.219-.471a1.766,1.766,0,0,0-1.779,1.186l23.047,9.452Z" fill="#fff335"/>
          <path id="Path_7724" data-name="Path 7724" d="M137.463,111.674a1.758,1.758,0,0,0,.486,1.935l6.852,6.186a1.786,1.786,0,0,1,.591,1.331H160.51Z" fill="#fede3a"/>
        </g>
        <path id="Path_7725" data-name="Path 7725" d="M193.167,151.634v5.844a4,4,0,0,1-2,3.466l5.1,5.1a5.976,5.976,0,0,0,.975-3.279V155.71Z" fill="#136da0"/>
        <path id="Path_7726" data-name="Path 7726" d="M173.68,132.148l-10.017-10.017a4,4,0,0,0-5.244-.36l0,0h0c-.045.034-.09.07-.134.106l-.013.011h0c-.088.074-.174.152-.257.235h0l0,0c-.1.1-.189.2-.275.3-.064.079-.125.159-.182.241s-.1.147-.144.222l-.007.012c-.027.045-.053.091-.078.137l-.01.019c-.025.046-.048.092-.071.138l-.007.015a4.133,4.133,0,0,0-.184.448l-.011.032c-.027.082-.051.164-.073.247l-.008.029c-.019.076-.036.151-.051.228,0,.01,0,.019-.005.029s-.009.049-.013.073,0,.022-.005.033-.007.046-.01.069,0,.024-.005.036-.006.046-.008.068,0,.023,0,.034-.005.045-.007.068l0,.038c0,.023,0,.047-.005.07s0,.02,0,.03c0,.029,0,.057,0,.086,0,.006,0,.011,0,.017q0,.1,0,.21s0,.01,0,.016l0,.087c0,.01,0,.019,0,.029s0,.047.005.071l0,.037c0,.023,0,.046.007.069s0,.021,0,.032.005.047.008.07,0,.023.005.035.007.046.01.07,0,.022.005.033.008.049.013.073,0,.019.005.029c.015.077.032.153.051.229,0,.009.005.018.007.027.022.083.046.166.073.248,0,.011.007.021.011.032a4.113,4.113,0,0,0,.183.447l.008.016c.023.046.046.092.071.138l.009.018c.025.046.051.092.078.137l.007.012q.067.112.144.222l.058.082c.04.054.081.107.124.16a3.912,3.912,0,0,0,.275.3l33.158,33.158a4,4,0,0,0,2-3.466v-5.844Z" fill="#e7ad27"/>
        <g id="Group_5985" data-name="Group 5985">
          <path id="Path_7727" data-name="Path 7727" d="M198.193,164.974l-40.187-40.187a4,4,0,0,1,0-5.657h0a4,4,0,0,1,5.657,0l40.187,40.187a4,4,0,0,1,0,5.657h0A4,4,0,0,1,198.193,164.974Z" fill="#e55658"/>
          <path id="Path_7728" data-name="Path 7728" d="M168.023,134.8l-10.017-10.017a4,4,0,0,1,0-5.657h0a4,4,0,0,1,5.657,0l10.017,10.017Z" fill="#fff"/>
          <g id="Group_5984" data-name="Group 5984">
            <path id="Path_7729" data-name="Path 7729" d="M198.193,164.974a4,4,0,0,0,6.475-1.182,4,4,0,0,1-4.475-.818l-30.17-30.17-2,2Z" fill="#b22b2c"/>
          </g>
          <path id="Path_7730" data-name="Path 7730" d="M168.023,134.8l2-2-10.017-10.017a4,4,0,0,1-.818-4.475,3.99,3.99,0,0,0-.616.347l-.005,0c-.046.032-.092.065-.137.1l-.015.011-.128.1-.02.016c-.041.035-.082.07-.122.106l-.016.015c-.041.037-.081.076-.121.115l0,0a3.985,3.985,0,0,0-.512.628,3.909,3.909,0,0,0-.328.606c-.026.06-.05.12-.073.181a3.932,3.932,0,0,0-.165.556,4.009,4.009,0,0,0,0,1.717,3.932,3.932,0,0,0,.165.556c.023.061.047.121.073.181a3.978,3.978,0,0,0,.84,1.233Z" fill="#e6e7e8"/>
        </g>
      </g>
      <g id="Group_5987" data-name="Group 5987">
        <path id="Path_7731" data-name="Path 7731" d="M128,67.683H117.333a4.808,4.808,0,0,0-4.808,4.808V93.826a4.808,4.808,0,0,0,4.808,4.808H128Z" fill="#e43d91"/>
        <path id="Path_7732" data-name="Path 7732" d="M138.667,67.683H128V98.634h10.667a4.808,4.808,0,0,0,4.808-4.808V72.491A4.808,4.808,0,0,0,138.667,67.683Z" fill="#e7ad27"/>
        <path id="Path_7733" data-name="Path 7733" d="M138.667,94.7H117.332a4.808,4.808,0,0,1-4.808-4.808V68.558a4.808,4.808,0,0,1,4.808-4.808h21.335a4.808,4.808,0,0,1,4.808,4.808V89.893A4.808,4.808,0,0,1,138.667,94.7Z" fill="#fff"/>
        <path id="Path_7734" data-name="Path 7734" d="M138.667,91.1H117.332a4.808,4.808,0,0,1-4.808-4.808v3.606a4.808,4.808,0,0,0,4.808,4.808h21.335a4.808,4.808,0,0,0,4.808-4.808V86.287A4.808,4.808,0,0,1,138.667,91.1Z" fill="#e6e7e8"/>
        <path id="Path_7735" data-name="Path 7735" d="M122.967,87.9V73.256a1.2,1.2,0,0,1,1.9-.976L135.057,79.6a1.2,1.2,0,0,1,0,1.952l-10.186,7.322A1.2,1.2,0,0,1,122.967,87.9Z" fill="#e6e7e8"/>
        <path id="Path_7736" data-name="Path 7736" d="M122.967,85.5V70.852a1.2,1.2,0,0,1,1.9-.976L135.057,77.2a1.2,1.2,0,0,1,0,1.952l-10.186,7.322A1.2,1.2,0,0,1,122.967,85.5Z" fill="#1caee4"/>
        <path id="Path_7737" data-name="Path 7737" d="M135.056,77.2l-1.064-.765-9.121,6.557a1.2,1.2,0,0,1-1.9-.976V85.5a1.2,1.2,0,0,0,1.9.976l10.186-7.322A1.2,1.2,0,0,0,135.056,77.2Z" fill="#009add"/>
      </g>
      <g id="Group_5989" data-name="Group 5989">
        <path id="Path_7738" data-name="Path 7738" d="M117.812,131.1l-4.451-3.579a16.559,16.559,0,0,0,.016-5.464l4.312-3.467a1.713,1.713,0,0,0,.41-2.189l-4.059-7.03a1.711,1.711,0,0,0-2.1-.74l-5.1,1.976a18.124,18.124,0,0,0-4.818-2.791l-.859-5.547a1.711,1.711,0,0,0-1.691-1.449H91.358a1.711,1.711,0,0,0-1.691,1.449l-.859,5.547A18.178,18.178,0,0,0,83.99,110.6l-5.1-1.976a1.71,1.71,0,0,0-2.1.74l-4.059,7.03a1.711,1.711,0,0,0,.41,2.189l4.312,3.467a16.559,16.559,0,0,0,.016,5.464L73.022,131.1a1.711,1.711,0,0,0-.41,2.189l4.059,7.03a1.711,1.711,0,0,0,2.1.74l5.365-2.081a18.131,18.131,0,0,0,4.672,2.682l.859,5.547a1.711,1.711,0,0,0,1.691,1.449h8.118a1.711,1.711,0,0,0,1.691-1.449l.859-5.547a18.13,18.13,0,0,0,4.672-2.682l5.365,2.081a1.712,1.712,0,0,0,2.1-.74l4.059-7.03A1.714,1.714,0,0,0,117.812,131.1ZM105.2,124.735a9.785,9.785,0,1,1-9.785-9.785A9.785,9.785,0,0,1,105.2,124.735Z" fill="#e43d91"/>
        <g id="Group_5988" data-name="Group 5988">
          <path id="Path_7739" data-name="Path 7739" d="M95.417,103.086A18.179,18.179,0,1,0,113.6,121.265,18.179,18.179,0,0,0,95.417,103.086Zm0,27.964a9.785,9.785,0,1,1,9.785-9.785A9.785,9.785,0,0,1,95.417,131.05Z" fill="#f7cb15"/>
          <path id="Path_7740" data-name="Path 7740" d="M83.982,107.132l-5.088-1.973a1.71,1.71,0,0,0-2.1.74l-4.059,7.03a1.711,1.711,0,0,0,.41,2.189l4.292,3.451A18.157,18.157,0,0,1,83.982,107.132Z" fill="#fff335"/>
          <path id="Path_7741" data-name="Path 7741" d="M77.452,124.065l-4.43,3.562a1.712,1.712,0,0,0-.41,2.189l4.059,7.03a1.711,1.711,0,0,0,2.1.74l5.351-2.075A18.162,18.162,0,0,1,77.452,124.065Z" fill="#fff335"/>
          <path id="Path_7742" data-name="Path 7742" d="M95.417,139.444a18.128,18.128,0,0,1-6.605-1.238l.856,5.527a1.711,1.711,0,0,0,1.691,1.449h8.117a1.711,1.711,0,0,0,1.691-1.449l.856-5.527A18.12,18.12,0,0,1,95.417,139.444Z" fill="#fff335"/>
          <path id="Path_7743" data-name="Path 7743" d="M117.812,127.627l-4.43-3.562a18.157,18.157,0,0,1-6.67,11.445l5.351,2.075a1.71,1.71,0,0,0,2.1-.74l4.059-7.03A1.712,1.712,0,0,0,117.812,127.627Z" fill="#fff335"/>
          <path id="Path_7744" data-name="Path 7744" d="M118.1,112.928l-4.059-7.03a1.711,1.711,0,0,0-2.1-.74l-5.088,1.973a18.161,18.161,0,0,1,6.546,11.436l4.292-3.451A1.71,1.71,0,0,0,118.1,112.928Z" fill="#fff335"/>
          <path id="Path_7745" data-name="Path 7745" d="M95.417,103.086a18.128,18.128,0,0,1,6.605,1.238l-.856-5.527a1.711,1.711,0,0,0-1.691-1.449H91.358A1.711,1.711,0,0,0,89.667,98.8l-.856,5.527A18.133,18.133,0,0,1,95.417,103.086Z" fill="#fff335"/>
          <path id="Path_7746" data-name="Path 7746" d="M95.417,108.968a12.3,12.3,0,1,0,12.3,12.3A12.3,12.3,0,0,0,95.417,108.968Zm0,22.082a9.785,9.785,0,1,1,9.785-9.785A9.785,9.785,0,0,1,95.417,131.05Z" fill="#e7ad27"/>
        </g>
      </g>
    </g>
  </g>
</svg>
